<svg xmlns="http://www.w3.org/2000/svg" xmlns:xlink="http://www.w3.org/1999/xlink" fill="none" version="1.1" width="66" height="66" viewBox="0 0 66 66"><defs><clipPath id="master_svg0_147_080"><rect x="0" y="0" width="66" height="66" rx="0"/></clipPath><clipPath id="master_svg1_147_06"><rect x="8" y="8" width="50" height="50" rx="0"/></clipPath></defs><g clip-path="url(#master_svg0_147_080)"><rect x="0" y="0" width="66" height="66" rx="0" fill="#FFFFFF" fill-opacity="0"/><g clip-path="url(#master_svg1_147_06)"><g><rect x="8" y="8" width="50" height="50" rx="7.400000095367432" fill="#01A0D5" fill-opacity="1"/></g><g><path d="M33.908500000000004,38.025099999999995L29.345399999999998,42.6777C28.4271,43.5507,27.2123,44.025999999999996,25.95699,44.003299999999996C24.70169,43.9807,23.50404,43.4619,22.61669,42.5563C21.72934,41.6507,21.22161,40.4292,21.20048,39.1493C21.17942,37.869299999999996,21.64669,36.6311,22.50374,35.6956L22.50124,35.6981L27.06442,31.0455C27.341459999999998,30.7318,27.489800000000002,30.3215,27.47881,29.8995C27.46782,29.4774,27.298360000000002,29.0758,27.0054,28.7774C26.712519999999998,28.479100000000003,26.31843,28.306800000000003,25.90449,28.2961C25.49055,28.2853,25.08836,28.436999999999998,24.780929999999998,28.7198L24.78222,28.718600000000002L20.21904,33.3711C18.768962,34.928,17.9729012,37.001000000000005,18.000704419,39.147800000000004C18.0285828,41.2947,18.878053,43.3455,20.36805,44.862700000000004C21.85805,46.3799,23.87048,47.243300000000005,25.97608,47.269C28.081699999999998,47.2946,30.1137,46.480199999999996,31.6387,44.9996L31.634999999999998,45.0021L36.1982,40.3495C36.4752,40.035799999999995,36.6235,39.6255,36.6126,39.2035C36.601600000000005,38.7815,36.4321,38.3799,36.1392,38.0814C35.8463,37.783100000000005,35.452200000000005,37.6108,35.0383,37.6001C34.624300000000005,37.5893,34.2221,37.741,33.914699999999996,38.0238L33.916,38.0226L33.908500000000004,38.025099999999995ZM47.6875,25.22683C47.686800000000005,23.599330000000002,47.2128,22.008499999999998,46.3256,20.65562C45.4383,19.30266,44.177499999999995,18.24827,42.7027,17.625769C41.2278,17.00334508,39.605000000000004,16.840618,38.039500000000004,17.158345C36.474000000000004,17.476072,35.036,18.25986,33.9073,19.41077L29.344099999999997,24.06335C29.1812,24.21297,29.0497,24.39478,28.957900000000002,24.59782C28.8661,24.80084,28.8157,25.02077,28.8099,25.24425C28.8041,25.46774,28.843,25.690089999999998,28.9241,25.89781C29.005200000000002,26.10547,29.1271,26.29418,29.282,26.45236C29.436999999999998,26.61047,29.6219,26.734859999999998,29.825499999999998,26.81781C30.0291,26.900840000000002,30.2471,26.94069,30.4663,26.93501C30.6856,26.92933,30.9013,26.87819,31.1006,26.784779999999998C31.2997,26.691380000000002,31.4782,26.557589999999998,31.6251,26.3916L31.6263,26.39032L36.189499999999995,21.737659999999998C37.1077,20.86471,38.3226,20.389409999999998,39.5779,20.41206C40.833200000000005,20.43471,42.0308,20.9535,42.918099999999995,21.859099999999998C43.8056,22.76471,44.3133,23.98622,44.3343,25.26615C44.3554,26.54615,43.8882,27.784399999999998,43.0312,28.7198L43.0336,28.7173L38.4705,33.3699C38.3074,33.5195,38.176100000000005,33.7013,38.0843,33.9043C37.9924,34.1074,37.942099999999996,34.3273,37.9362,34.550799999999995C37.9304,34.7743,37.969300000000004,34.9966,38.0505,35.2043C38.1316,35.412,38.2534,35.6007,38.4084,35.7589C38.5633,35.917100000000005,38.7482,36.041399999999996,38.9518,36.1244C39.1554,36.2074,39.373400000000004,36.2472,39.5927,36.2415C39.811800000000005,36.2358,40.0276,36.184799999999996,40.2268,36.091300000000004C40.426100000000005,35.9979,40.6045,35.8641,40.751400000000004,35.6981L40.752700000000004,35.6969L45.315799999999996,31.0443C46.0684,30.285,46.6656,29.3809,47.0727,28.3844C47.4798,27.387999999999998,47.6888,26.319029999999998,47.6875,25.23956L47.6875,25.22812L47.6875,25.22683Z" fill="#FFFFFF" fill-opacity="1"/></g><g><path d="M26.429241920898438,38.402772326660155C26.721363920898437,38.70057232666016,27.12409392089844,38.884372326660156,27.570373920898437,38.884372326660156C28.016593920898437,38.884372326660156,28.41931392089844,38.70057232666016,28.71144392089844,38.402772326660155L37.837793920898434,29.097502326660155C38.11489392089844,28.783712326660158,38.26319392089844,28.373562326660156,38.252193920898435,27.951522326660157C38.24119392089844,27.529472326660155,38.07169392089844,27.127881326660155,37.77879392089844,26.829472326660156C37.485893920898434,26.531138326660155,37.09179392089844,26.358791026660157,36.67789392089844,26.348108407660156C36.26389392089844,26.337350626660157,35.861743920898434,26.489018326660155,35.55431392089844,26.771820326660155L35.555603920898434,26.770532326660156L26.429241920898438,36.075832326660155C26.137120920898436,36.373672326660156,25.956893920898438,36.78427232666016,25.956893920898438,37.239272326660156C25.956893920898438,37.694272326660155,26.137120920898436,38.10497232666016,26.429241920898438,38.402772326660155Z" fill="#FFFFFF" fill-opacity="1"/></g></g></g></svg>