<svg xmlns="http://www.w3.org/2000/svg" xmlns:xlink="http://www.w3.org/1999/xlink" fill="none" version="1.1" width="20" height="20" viewBox="0 0 20 20"><defs><clipPath id="master_svg0_1_701"><rect x="0" y="0" width="20" height="20" rx="0"/></clipPath></defs><g clip-path="url(#master_svg0_1_701)"><rect x="0" y="0" width="20" height="20" rx="0" fill="#582323" fill-opacity="0"/><g><path d="M12.742899976158142,18.149999976158142L12.742899976158142,16.129299976158144C14.221399976158143,15.702199976158141,15.412499976158141,14.880699976158143,16.316099976158142,13.664999976158143C17.21969997615814,12.449299976158143,17.671399976158142,11.069299976158142,17.671399976158142,9.525009976158142C17.671399976158142,7.980719976158142,17.21969997615814,6.600719976158142,16.316099976158142,5.385009976158142C15.412499976158141,4.169279976158142,14.221399976158143,3.347859976158142,12.742899976158142,2.920719976158142L12.742899976158142,0.8999999761581421C14.779999976158143,1.3600009761581422,16.439299976158143,2.390899976158142,17.720699976158144,3.992679976158142C19.002099976158142,5.594469976158142,19.64289997615814,7.438569976158142,19.64289997615814,9.525009976158142C19.64289997615814,11.611499976158141,19.002099976158142,13.455499976158142,17.720699976158144,15.057299976158141C16.439299976158143,16.659099976158142,14.779999976158143,17.68999997615814,12.742899976158142,18.149999976158142ZM1.899999976158142,12.506799976158142L1.899999976158142,6.5925099761581425L5.842859976158142,6.5925099761581425L10.771429976158142,1.663932976158142L10.771429976158142,17.43539997615814L5.842859976158142,12.506799976158142L1.899999976158142,12.506799976158142ZM12.742899976158142,13.492499976158141L12.742899976158142,5.557509976158142C13.514999976158142,5.918929976158142,14.118699976158142,6.461069976158142,14.554099976158142,7.183939976158142C14.989499976158141,7.906789976158142,15.207099976158142,8.69535997615814,15.207099976158142,9.549649976158141C15.207099976158142,10.387509976158142,14.989499976158141,11.163699976158142,14.554099976158142,11.878399976158143C14.118699976158142,12.592999976158142,13.514999976158142,13.130999976158142,12.742899976158142,13.492499976158141ZM8.799999976158142,6.444649976158142L6.680719976158142,8.563929976158143L3.871429976158142,8.563929976158143L3.871429976158142,10.535349976158143L6.680719976158142,10.535349976158143L8.799999976158142,12.654599976158142L8.799999976158142,6.444649976158142Z" fill="#000000" fill-opacity="1" style="mix-blend-mode:passthrough"/></g></g></svg>