<svg width="15" height="13" viewBox="0 0 15 13" fill="none" xmlns="http://www.w3.org/2000/svg">
<path d="M1.5 12.8926C1.0875 12.8926 0.734375 12.7457 0.440625 12.452C0.146875 12.1582 0 11.8051 0 11.3926V2.39258C0 1.98008 0.146875 1.62695 0.440625 1.3332C0.734375 1.03945 1.0875 0.892578 1.5 0.892578H10.5C10.9125 0.892578 11.2656 1.03945 11.5594 1.3332C11.8531 1.62695 12 1.98008 12 2.39258V5.76758L15 2.76758V11.0176L12 8.01758V11.3926C12 11.8051 11.8531 12.1582 11.5594 12.452C11.2656 12.7457 10.9125 12.8926 10.5 12.8926H1.5ZM1.5 11.3926H10.5V2.39258H1.5V11.3926Z" fill="#8A9AA8"/>
</svg>
