<svg width="22" height="22" viewBox="0 0 22 22" fill="none" xmlns="http://www.w3.org/2000/svg">
    <path d="M13.563 20.165a3.001 3.001 0 0 1-1.583-.44 2.68 2.68 0 0 1-1.049-1.181 2.443 2.443 0 0 1-.16-1.522c.112-.511.385-.98.785-1.346l4.263-3.953c.126-.097.228-.217.3-.353a1.026 1.026 0 0 0-.221-1.255 1.19 1.19 0 0 0-.407-.245 1.264 1.264 0 0 0-.95.04 1.17 1.17 0 0 0-.38.278l-5.69 5.257a3.03 3.03 0 0 1-2.011.75 3.03 3.03 0 0 1-2.012-.75 2.537 2.537 0 0 1-.828-1.857c0-.696.298-1.364.828-1.857l7.116-6.586c.126-.097.229-.217.301-.352a1.026 1.026 0 0 0-.222-1.255 1.19 1.19 0 0 0-.407-.246 1.263 1.263 0 0 0-.95.04 1.169 1.169 0 0 0-.38.278L3.542 9.464A.793.793 0 0 1 2.466 8.3l6.245-5.786a2.982 2.982 0 0 1 1.982-.68 2.96 2.96 0 0 1 1.941.772c.516.478.813 1.122.83 1.798a2.522 2.522 0 0 1-.739 1.832l-7.107 6.578a1.05 1.05 0 0 0-.342.767c0 .288.123.564.342.768.223.197.52.307.83.307.308 0 .605-.11.829-.307l5.689-5.265c.259-.265.572-.478.923-.626a3.05 3.05 0 0 1 2.24-.053c.358.132.683.33.955.582.273.252.488.552.631.883a2.46 2.46 0 0 1-.052 2.073c-.16.325-.39.615-.675.855l-4.27 3.953a1.039 1.039 0 0 0-.273.747c.013.272.136.53.344.722.208.192.486.305.78.318.293.012.581-.078.807-.252l3.131-2.891a.811.811 0 0 1 1.102 1.192l-3.039 2.812c-.262.245-.575.439-.92.57a3 3 0 0 1-1.087.197z" fill="#0D7CA0" stroke="#0D7CA0" stroke-width=".5"/>
</svg>
