<svg width="32" height="32" viewBox="0 0 32 32" fill="none" xmlns="http://www.w3.org/2000/svg">
    <circle cx="22.672" cy="20" r="4" fill="#0D7CA0"/>
    <path fill-rule="evenodd" clip-rule="evenodd" d="m21.989 21.645-1.373-1.372a.211.211 0 0 1 0-.299l.3-.298a.21.21 0 0 1 .298 0l.924.924 1.98-1.98a.211.211 0 0 1 .299 0l.298.299a.211.211 0 0 1 0 .299l-2.428 2.427a.211.211 0 0 1-.298 0z" fill="#FEFFFF"/>
    <path fill-rule="evenodd" clip-rule="evenodd" d="M16.038 26.665h.032a.613.613 0 0 0 .354-.111c.115-.081 1.116-.785 2.503-1.865a6 6 0 1 1 8.52-8.32c.106-.158.208-.314.304-.47.004-.004.007-.01.01-.015l.002-.004a6.879 6.879 0 0 0 1.009-3.588c0-3.838-3.165-6.96-7.055-6.96a7.084 7.084 0 0 0-5.663 2.809 7.084 7.084 0 0 0-5.664-2.809c-3.89 0-7.054 3.122-7.054 6.96 0 1.268.349 2.508 1.009 3.588l.012.02c2.958 4.766 10.987 10.415 11.327 10.654a.616.616 0 0 0 .354.111z" fill="#FF9635"/>
</svg>
