<svg xmlns="http://www.w3.org/2000/svg" xmlns:xlink="http://www.w3.org/1999/xlink" fill="none" version="1.1" width="66" height="66" viewBox="0 0 66 66"><defs><clipPath id="master_svg0_147_070"><rect x="0" y="0" width="66" height="66" rx="0"/></clipPath><clipPath id="master_svg1_147_1"><rect x="8" y="8" width="50" height="50" rx="0"/></clipPath></defs><g clip-path="url(#master_svg0_147_070)"><rect x="0" y="0" width="66" height="66" rx="0" fill="#FFFFFF" fill-opacity="0"/><g clip-path="url(#master_svg1_147_1)"><g><rect x="8" y="8" width="50" height="50" rx="7.400000095367432" fill="#01A0D5" fill-opacity="1"/></g><g transform="matrix(2.4000000953674316,0,0,2.4000000953674316,-24.98787935719338,-28.169684040184165)"><g><path d="M29.21208403930664,22.393661515197753L29.21208403930664,27.721691515197755C29.21208403930664,27.770931515197752,29.20758403930664,27.820171515197753,29.198484039306642,27.865631515197755C29.20758403930664,27.934571515197753,29.21208403930664,28.005021515197754,29.21208403930664,28.075481515197755C29.21208403930664,29.120931515197753,28.19468403930664,29.96942151519775,26.93939403930664,29.96942151519775C25.68409403930664,29.96942151519775,24.66666403930664,29.120931515197753,24.66666403930664,28.075481515197755C24.66666403930664,27.030021515197753,25.68409403930664,26.181541515197754,26.93939403930664,26.181541515197754C27.20454403930664,26.181541515197754,27.45984403930664,26.219421515197755,27.696964039306643,26.289111515197753L27.696964039306643,23.243661515197754L22.39393403930664,23.851991515197753L22.39393403930664,29.615631515197755C22.39393403930664,29.634571515197756,22.39393403930664,29.653511515197756,22.39166403930664,29.672451515197753C22.34090403930664,30.680001515197752,21.343184039306642,31.484601515197753,20.12121403930664,31.484601515197753C18.865904039306642,31.484601515197753,17.84848403930664,30.636101515197755,17.84848403930664,29.590631515197753C17.84848403930664,28.545171515197755,18.865904039306642,27.696691515197756,20.12121403930664,27.696691515197756C20.386364039306642,27.696691515197756,20.64166403930664,27.734571515197754,20.87878403930664,27.804271515197755L20.87878403930664,21.661081515197754C20.87897403930664,21.276241515197754,21.16766403930664,20.952683515197755,21.54999403930664,20.908811515197755L28.36818403930664,20.126235755197754C28.81768403930664,20.074653515197753,29.21188403930664,20.426041515197753,29.21208403930664,20.878508515197755L29.21208403930664,22.393661515197753Z" fill-rule="evenodd" fill="#ffffff" fill-opacity="1"/></g></g></g></g></svg>