<svg xmlns="http://www.w3.org/2000/svg" xmlns:xlink="http://www.w3.org/1999/xlink" fill="none" version="1.1" width="20" height="20" viewBox="0 0 20 20"><defs><clipPath id="master_svg0_2_94"><rect x="0" y="0" width="20" height="20" rx="0"/></clipPath></defs><g clip-path="url(#master_svg0_2_94)"><g><path d="M12.16464,2.50107314L14.27,2.50106812L14.27,5.73L17.5,5.73L17.5,7.83643L15.3858,7.83643L12.16464,7.83536L12.16464,5.73L12.16464,2.50107314ZM12.16464,12.16464L15.3858,12.16464L17.5,12.16464Q17.5,12.9362,17.5,14.27L14.27,14.27L14.27,17.5L12.16464,17.5L12.16464,14.27L12.16464,12.16464ZM2.50107314,7.83536L2.50106812,5.73L5.73001,5.73L5.73001,2.50106812L7.83643,2.5L7.83536,5.73L7.83536,7.83536L6.2253,7.83536L4.61525,7.83536L2.50107314,7.83536ZM5.73001,12.16464L7.83536,12.16464L7.83536,15.3858L7.83536,17.5L5.73001,17.5L5.73001,14.27L2.5,14.27L2.5,12.16464L5.73001,12.16464Z" fill="#000000" fill-opacity="1" style="mix-blend-mode:passthrough"/></g></g></svg>