<svg width="18" height="19" viewBox="0 0 18 19" fill="none" xmlns="http://www.w3.org/2000/svg">
<path d="M8.1 5.5H9.9V10.9H8.1V5.5ZM9 12.7C9.255 12.7 9.46875 12.7863 9.64125 12.9588C9.81375 13.1312 9.9 13.345 9.9 13.6C9.9 13.855 9.81375 14.0688 9.64125 14.2413C9.46875 14.4138 9.255 14.5 9 14.5C8.745 14.5 8.53125 14.4138 8.35875 14.2413C8.18625 14.0688 8.1 13.855 8.1 13.6C8.1 13.345 8.18625 13.1312 8.35875 12.9588C8.53125 12.7863 8.745 12.7 9 12.7ZM9 1C7.755 1 6.585 1.23625 5.49 1.70875C4.395 2.18125 3.4425 2.8225 2.6325 3.6325C1.8225 4.4425 1.18125 5.395 0.70875 6.49C0.23625 7.585 0 8.755 0 10C0 11.245 0.23625 12.415 0.70875 13.51C1.18125 14.605 1.8225 15.5575 2.6325 16.3675C3.4425 17.1775 4.395 17.8188 5.49 18.2912C6.585 18.7638 7.755 19 9 19C10.245 19 11.415 18.7638 12.51 18.2912C13.605 17.8188 14.5575 17.1775 15.3675 16.3675C16.1775 15.5575 16.8187 14.605 17.2912 13.51C17.7638 12.415 18 11.245 18 10C18 8.755 17.7638 7.585 17.2912 6.49C16.8187 5.395 16.1775 4.4425 15.3675 3.6325C14.5575 2.8225 13.605 2.18125 12.51 1.70875C11.415 1.23625 10.245 1 9 1ZM9 2.8C11.01 2.8 12.7125 3.4975 14.1075 4.8925C15.5025 6.2875 16.2 7.99 16.2 10C16.2 12.01 15.5025 13.7125 14.1075 15.1075C12.7125 16.5025 11.01 17.2 9 17.2C6.99 17.2 5.2875 16.5025 3.8925 15.1075C2.4975 13.7125 1.8 12.01 1.8 10C1.8 7.99 2.4975 6.2875 3.8925 4.8925C5.2875 3.4975 6.99 2.8 9 2.8Z" fill="#D92635"/>
</svg>
