<svg width="22" height="22" viewBox="0 0 22 22" fill="none" xmlns="http://www.w3.org/2000/svg">
    <g clip-path="url(#0x9pet68ta)" stroke="#0D7CA0" stroke-width="1.8">
        <path d="M4.89 10.998a6.111 6.111 0 1 1 12.222 0v7.778c0 .767-.621 1.389-1.388 1.389H6.28a1.389 1.389 0 0 1-1.39-1.39v-7.777z"/>
        <path d="M9.984 9.98h2.037M8.969 4.888V3.869c0-1.125.912-2.037 2.037-2.037v0c1.125 0 2.037.912 2.037 2.037v1.019M5.906 20.167v0A5.093 5.093 0 0 1 11 15.074v0a5.093 5.093 0 0 1 5.092 5.093v0M4.891 11v0a3.056 3.056 0 0 0-3.055 3.056v1.018A3.056 3.056 0 0 0 4.89 18.13v0M17.116 11v0a3.056 3.056 0 0 1 3.056 3.056v1.018a3.056 3.056 0 0 1-3.056 3.056v0" stroke-linecap="round" stroke-linejoin="round"/>
    </g>
    <defs>
        <clipPath id="0x9pet68ta">
            <path fill="#fff" d="M0 0h22v22H0z"/>
        </clipPath>
    </defs>
</svg>
