<svg width="15" height="16" viewBox="0 0 15 16" fill="none" xmlns="http://www.w3.org/2000/svg">
<path d="M5 15.3926H1.66667C1.20833 15.3926 0.815972 15.2294 0.489583 14.903C0.163194 14.5766 0 14.1842 0 13.7259V7.89258C0 6.85091 0.197917 5.87522 0.59375 4.96549C0.989583 4.05577 1.52431 3.26411 2.19792 2.59049C2.87153 1.91688 3.66319 1.38216 4.57292 0.986328C5.48264 0.590495 6.45833 0.392578 7.5 0.392578C8.54167 0.392578 9.51736 0.590495 10.4271 0.986328C11.3368 1.38216 12.1285 1.91688 12.8021 2.59049C13.4757 3.26411 14.0104 4.05577 14.4062 4.96549C14.8021 5.87522 15 6.85091 15 7.89258V13.7259C15 14.1842 14.8368 14.5766 14.5104 14.903C14.184 15.2294 13.7917 15.3926 13.3333 15.3926H10V8.72591H13.3333V7.89258C13.3333 6.26758 12.7674 4.88911 11.6354 3.75716C10.5035 2.62522 9.125 2.05924 7.5 2.05924C5.875 2.05924 4.49653 2.62522 3.36458 3.75716C2.23264 4.88911 1.66667 6.26758 1.66667 7.89258V8.72591H5V15.3926ZM3.33333 10.3926H1.66667V13.7259H3.33333V10.3926ZM11.6667 10.3926V13.7259H13.3333V10.3926H11.6667Z" fill="#8A9AA8"/>
</svg>
