<svg width="24" height="24" viewBox="0 0 24 24" fill="none" xmlns="http://www.w3.org/2000/svg">
    <path d="M14.1 17.776v.8c0 .9-.6 1.8-1.5 1.9-1.1.2-2.1-.7-2.1-1.8v-.9h3.6z" stroke="#0D7CA0" stroke-width="2" stroke-miterlimit="10" stroke-linecap="round" stroke-linejoin="round"/>
    <path d="M18.6 17.776H6c-.5 0-1-.4-1-1v-.2c0-.6.3-1.2.7-1.6.7-.6 1.1-1.4 1.1-2.3v-3c0-2.7 1.9-5.2 4.6-5.6 1.9-.3 3.6.3 4.8 1.5 1 1 1.6 2.4 1.6 3.9v3.2c0 .9.4 1.7 1.1 2.3.5.4.7.9.7 1.6v.2c0 .6-.4 1-1 1z" stroke="#0D7CA0" stroke-width="2" stroke-miterlimit="10" stroke-linecap="round" stroke-linejoin="round"/>
</svg>
