<svg width="22" height="22" viewBox="0 0 22 22" fill="none" xmlns="http://www.w3.org/2000/svg">
    <path d="m18.63 15.674.002.001a.418.418 0 0 1 .091.456l.462.192-.462-.192a.42.42 0 0 1-.09.136l-.002.001-3.28 3.28h-.001a.417.417 0 0 1-.295.121h-2.222a.416.416 0 0 1-.416-.416V17.03c0-.054.01-.109.03-.16l-.462-.189.463.19a.415.415 0 0 1 .09-.137l3.28-3.28.001-.001a.414.414 0 0 1 .136-.091l-.193-.462.193.462a.415.415 0 0 1 .32 0l.193-.462-.193.462c.051.02.097.052.136.09l.001.002 2.219 2.219zm-3.963 3.162h.207l.146-.146 2.365-2.366.354-.353-.354-.354-.916-.916-.354-.354-.354.354-2.365 2.365-.146.146v1.624h1.417zM10.583 3.669v-.5H5.5a1.417 1.417 0 0 0-1.417 1.417v12.833A1.417 1.417 0 0 0 5.5 18.836h3.667a.416.416 0 1 1 0 .833H5.5a2.25 2.25 0 0 1-2.25-2.25V4.586a2.25 2.25 0 0 1 2.25-2.25h5.472l.214.074.114.039.012-.002c.01.008.02.015.028.024l5.488 5.487a.478.478 0 0 1 .034.042v.032l.026.077c.013.04.023.08.029.12v1.857a.417.417 0 0 1-.834 0V8.669h-3.25a2.25 2.25 0 0 1-2.25-2.25V3.67zm1.687.94-.853-.854v2.664a1.417 1.417 0 0 0 1.416 1.417h2.665l-.854-.854-2.374-2.374zm.563 7.727h-5.5a.417.417 0 0 1 0-.833h5.5a.417.417 0 0 1 0 .833zM8.25 8.669h-.917a.417.417 0 0 1 0-.833h.917a.417.417 0 1 1 0 .833zm-1.211 6.622a.417.417 0 0 1 .294-.122h1.834a.417.417 0 0 1 0 .834H7.333a.417.417 0 0 1-.294-.712z" fill="#0D7CA0" stroke="#0D7CA0"/>
</svg>
