<svg width="24" height="24" viewBox="0 0 24 24" fill="none" xmlns="http://www.w3.org/2000/svg">
    <path fill-rule="evenodd" clip-rule="evenodd" d="M9.297 21c-1.656 0-3.23-.666-4.432-1.875-2.388-2.403-2.486-6.213-.219-8.494l7.386-7.43A4.085 4.085 0 0 1 14.954 2c1.193 0 2.327.479 3.192 1.349 1.721 1.731 1.787 4.482.146 6.132l-7.395 7.429a2.535 2.535 0 0 1-1.816.748 2.738 2.738 0 0 1-1.95-.821c-1.053-1.061-1.086-2.752-.073-3.772l6.825-6.855A.999.999 0 1 1 15.3 7.62l-6.824 6.856c-.24.242-.207.669.074.951a.76.76 0 0 0 .531.231.55.55 0 0 0 .398-.158l7.395-7.429c.867-.873.802-2.358-.146-3.312-.907-.912-2.446-.984-3.278-.148l-7.386 7.43c-1.494 1.503-1.396 4.049.22 5.674C7.107 18.544 8.177 19 9.297 19a3.648 3.648 0 0 0 2.611-1.064l7.387-7.43a1 1 0 1 1 1.418 1.41l-7.387 7.43C12.266 20.412 10.835 21 9.297 21z" fill="#0D7CA0"/>
</svg>
