<svg width="40" height="40" viewBox="0 0 40 40" fill="none" xmlns="http://www.w3.org/2000/svg">
    <path d="M6.68 7.2A3.2 3.2 0 0 1 9.88 4h12l6.4 6.4v20.8a3.2 3.2 0 0 1-3.2 3.2H9.88a3.2 3.2 0 0 1-3.2-3.2v-24z" fill="#FF9635"/>
    <path d="M23.781 13.2h-12.6c-.497 0-.9.176-.9.395v1.609c0 .218.403.395.9.395h12.6c.498 0 .9-.177.9-.395v-1.61c0-.218-.402-.395-.9-.395zM18.531 19.2h-7.7c-.304 0-.55.176-.55.395v1.609c0 .218.246.395.55.395h7.7c.304 0 .55-.177.55-.395v-1.61c0-.218-.246-.395-.55-.395zM16.281 25.2h-5.6c-.22 0-.4.176-.4.395v1.609c0 .218.18.395.4.395h5.6c.221 0 .4-.177.4-.395v-1.61a.398.398 0 0 0-.4-.395z" fill="#fff"/>
    <path d="M21.883 8.422a2 2 0 0 0 2 2h4.421L21.883 4v4.422z" fill="#FFDA86"/>
    <path fill-rule="evenodd" clip-rule="evenodd" d="m18.611 30.96 9.49-9.192a4.167 4.167 0 0 1 5.798 0l1.28 1.24a4.167 4.167 0 0 1 0 5.985l-9.463 9.167a4.167 4.167 0 0 1-2.899 1.174H21.51a4.167 4.167 0 0 1-4.166-4.167v-1.214c0-1.128.457-2.208 1.267-2.993z" fill="#fff"/>
    <path d="m20.933 33.353 9.49-9.192a.833.833 0 0 1 1.16 0l1.279 1.24a.833.833 0 0 1 0 1.196l-9.463 9.167a.833.833 0 0 1-.58.235h-1.306a.833.833 0 0 1-.833-.834v-1.213c0-.226.091-.442.253-.599z" fill="#0D7CA0"/>
</svg>
