<svg width="32" height="32" viewBox="0 0 32 32" fill="none" xmlns="http://www.w3.org/2000/svg">
    <path d="M26.885 16.004v6.995c0 .858-.696 1.554-1.555 1.554h-.777v1.971a.358.358 0 0 1-.559.296l-3.327-2.267h-3.886A1.554 1.554 0 0 1 15.227 23v-1.555h5.44a3.109 3.109 0 0 0 3.109-3.109V14.45h1.555c.858 0 1.554.696 1.554 1.555z" fill="#0D7CA0"/>
    <path d="M7.457 5.121h12.435a2.332 2.332 0 0 1 2.332 2.332v10.104a2.331 2.331 0 0 1-2.332 2.331H12.12l-3.114 3.737a.437.437 0 0 1-.772-.28v-3.457h-.777a2.331 2.331 0 0 1-2.332-2.331V7.453A2.331 2.331 0 0 1 7.457 5.12z" fill="#FF9635"/>
    <path d="M13.828 17v-6.333M19 17v-4.098M8.664 16.668V9.335" stroke="#fff" stroke-width="2" stroke-linecap="round"/>
</svg>
