<svg width="24" height="24" viewBox="0 0 24 24" fill="none" xmlns="http://www.w3.org/2000/svg">
    <rect x="2" y="5" width="20" height="15" rx="7.5" stroke="#0D7CA0" stroke-width="2"/>
    <path d="M8.776 15.664c.568 0 .872-.264 1.048-.632l.08.536h.944v-3.36H8.976v.84h.584v.76c0 .44-.12.84-.56.84-.44 0-.536-.384-.536-.824v-3c0-.392.032-.816.496-.816.448 0 .48.368.48.776v.528h1.4v-.416C10.84 9.768 10.376 9 8.944 9 7.464 9 7 9.872 7 11.248v2.176c0 1.336.432 2.24 1.776 2.24zM11.992 15.568h1.432v-6.48h-1.432v6.48zM14.63 15.568h1.432v-2.88h1.192v-1h-1.192v-1.632h1.368v-.968h-2.8v6.48z" fill="#0D7CA0"/>
</svg>
