<svg width="22" height="22" viewBox="0 0 22 22" fill="none" xmlns="http://www.w3.org/2000/svg">
    <g clip-path="url(#crkxom460a)" stroke="#0D7CA0" stroke-width="2" stroke-linecap="round" stroke-linejoin="round">
        <path d="M18.17 1.832H3.835A1.998 1.998 0 0 0 1.836 3.83v14.337c0 1.104.895 1.998 1.998 1.998h14.337a1.998 1.998 0 0 0 1.998-1.998V3.83a1.998 1.998 0 0 0-1.998-1.998zM5.5 1.832v18.333M16.5 1.832v18.333M1.836 11h18.333M1.836 7.332h3.667M1.836 16.5h3.667M16.5 16.5h3.667M16.5 7.332h3.667"/>
    </g>
    <defs>
        <clipPath id="crkxom460a">
            <path fill="#fff" d="M0 0h22v22H0z"/>
        </clipPath>
    </defs>
</svg>
