<svg width="17" height="16" viewBox="0 0 17 16" fill="none" xmlns="http://www.w3.org/2000/svg">
<mask id="mask0_8453_476" style="mask-type:alpha" maskUnits="userSpaceOnUse" x="0" y="0" width="17" height="16">
<rect x="0.5" width="16" height="16" fill="#D9D9D9"/>
</mask>
<g mask="url(#mask0_8453_476)">
<path d="M8.49984 10.6665C9.33317 10.6665 10.0415 10.3748 10.6248 9.7915C11.2082 9.20817 11.4998 8.49984 11.4998 7.6665C11.4998 6.83317 11.2082 6.12484 10.6248 5.5415C10.0415 4.95817 9.33317 4.6665 8.49984 4.6665C7.6665 4.6665 6.95817 4.95817 6.37484 5.5415C5.7915 6.12484 5.49984 6.83317 5.49984 7.6665C5.49984 8.49984 5.7915 9.20817 6.37484 9.7915C6.95817 10.3748 7.6665 10.6665 8.49984 10.6665ZM8.49984 9.4665C7.99984 9.4665 7.57484 9.2915 7.22484 8.9415C6.87484 8.5915 6.69984 8.1665 6.69984 7.6665C6.69984 7.1665 6.87484 6.7415 7.22484 6.3915C7.57484 6.0415 7.99984 5.8665 8.49984 5.8665C8.99984 5.8665 9.42484 6.0415 9.77484 6.3915C10.1248 6.7415 10.2998 7.1665 10.2998 7.6665C10.2998 8.1665 10.1248 8.5915 9.77484 8.9415C9.42484 9.2915 8.99984 9.4665 8.49984 9.4665ZM8.49984 12.6665C6.87761 12.6665 5.39984 12.2137 4.0665 11.3082C2.73317 10.4026 1.7665 9.18873 1.1665 7.6665C1.7665 6.14428 2.73317 4.93039 4.0665 4.02484C5.39984 3.11928 6.87761 2.6665 8.49984 2.6665C10.1221 2.6665 11.5998 3.11928 12.9332 4.02484C14.2665 4.93039 15.2332 6.14428 15.8332 7.6665C15.2332 9.18873 14.2665 10.4026 12.9332 11.3082C11.5998 12.2137 10.1221 12.6665 8.49984 12.6665ZM8.49984 11.3332C9.75539 11.3332 10.9082 11.0026 11.9582 10.3415C13.0082 9.68039 13.8109 8.78873 14.3665 7.6665C13.8109 6.54428 13.0082 5.65262 11.9582 4.9915C10.9082 4.33039 9.75539 3.99984 8.49984 3.99984C7.24428 3.99984 6.0915 4.33039 5.0415 4.9915C3.9915 5.65262 3.18873 6.54428 2.63317 7.6665C3.18873 8.78873 3.9915 9.68039 5.0415 10.3415C6.0915 11.0026 7.24428 11.3332 8.49984 11.3332Z" fill="#8A9AA8"/>
</g>
</svg>
