<svg width="48" height="48" viewBox="0 0 48 48" fill="none" xmlns="http://www.w3.org/2000/svg">
<path d="M5.33333 48C3.86667 48 2.61111 47.4778 1.56667 46.4333C0.522222 45.3889 0 44.1333 0 42.6667V5.33333C0 3.86667 0.522222 2.61111 1.56667 1.56667C2.61111 0.522222 3.86667 0 5.33333 0H42.6667C44.1333 0 45.3889 0.522222 46.4333 1.56667C47.4778 2.61111 48 3.86667 48 5.33333V42.6667C48 44.1333 47.4778 45.3889 46.4333 46.4333C45.3889 47.4778 44.1333 48 42.6667 48H5.33333ZM8 25.5333L18.6667 14.8667L29.3333 25.5333L40 14.8667L42.6667 17.5333V5.33333H5.33333V22.8667L8 25.5333ZM5.33333 42.6667H42.6667V25.0667L40 22.4L29.3333 33.0667L18.6667 22.4L8 33.0667L5.33333 30.4V42.6667ZM5.33333 42.6667V25.0667V30.4V5.33333V42.6667Z" fill="#31728C"/>
</svg>
