<svg width="12" height="13" viewBox="0 0 12 13" fill="none" xmlns="http://www.w3.org/2000/svg">
<path d="M3 9.5H6V8H3V9.5ZM3 7.25H9V5.75H3V7.25ZM3 5H9V3.5H3V5ZM1.5 12.5C1.0875 12.5 0.734375 12.3531 0.440625 12.0594C0.146875 11.7656 0 11.4125 0 11V2C0 1.5875 0.146875 1.23438 0.440625 0.940625C0.734375 0.646875 1.0875 0.5 1.5 0.5H10.5C10.9125 0.5 11.2656 0.646875 11.5594 0.940625C11.8531 1.23438 12 1.5875 12 2V11C12 11.4125 11.8531 11.7656 11.5594 12.0594C11.2656 12.3531 10.9125 12.5 10.5 12.5H1.5ZM1.5 11H10.5V2H1.5V11Z" fill="#31728C"/>
</svg>
