<svg width="17" height="16" viewBox="0 0 17 16" fill="none" xmlns="http://www.w3.org/2000/svg">
    <path d="M14.915 6.66c.162.191.254.429.254.667a.99.99 0 0 1-.254.666l-4.074 4.375a.915.915 0 0 1-.672.285.842.842 0 0 1-.648-.261.927.927 0 0 1-.278-.69V9.61c-1.342.023-2.291.095-2.87.237-.74.19-1.227.547-1.435 1.047-.232.523-.185 1.284.116 2.306.046.238.023.429-.093.619a.712.712 0 0 1-.486.333.645.645 0 0 1-.579-.12 4.578 4.578 0 0 1-1.32-1.45c-.509-.808-.74-1.712-.74-2.71 0-1.285.347-2.284 1.065-3.045.602-.642 1.528-1.117 2.731-1.403.926-.237 2.13-.356 3.611-.38V2.95c0-.261.093-.475.278-.666A.865.865 0 0 1 10.17 2c.255 0 .486.095.672.285l4.074 4.376zm-.533.81a.344.344 0 0 0 .046-.143.344.344 0 0 0-.046-.143L10.308 2.81a.22.22 0 0 0-.208-.024c-.093.047-.116.095-.116.166v2.854c-1.528 0-2.708.071-3.542.214-1.203.19-2.13.57-2.754 1.118-.741.642-1.111 1.545-1.111 2.734 0 .809.185 1.546.578 2.188.278.523.672.975 1.18 1.356-.37-1.38-.37-2.402.047-3.116.37-.618 1.065-1.022 2.107-1.236.74-.143 1.898-.214 3.495-.214v2.853c0 .095.023.143.116.167.07.047.139.024.208-.024l4.074-4.376z" fill="#0D7CA0" stroke="#0D7CA0" stroke-width=".6"/>
</svg>
