<?xml version="1.0" encoding="UTF-8"?>
<!--Generator: Apple Native CoreSVG 232.5-->
<!DOCTYPE svg
PUBLIC "-//W3C//DTD SVG 1.1//EN"
       "http://www.w3.org/Graphics/SVG/1.1/DTD/svg11.dtd">
<svg version="1.1" xmlns="http://www.w3.org/2000/svg" xmlns:xlink="http://www.w3.org/1999/xlink" width="6.68555" height="11.874">
 <g>
  <rect height="11.874" opacity="0" width="6.68555" x="0" y="0"/>
  <path d="M0 5.93359C0 6.10449 0.0615234 6.25488 0.191406 6.38477L5.6123 11.6826C5.72852 11.8057 5.87891 11.8672 6.05664 11.8672C6.41211 11.8672 6.68555 11.6006 6.68555 11.2451C6.68555 11.0674 6.61035 10.917 6.50098 10.8008L1.52441 5.93359L6.50098 1.06641C6.61035 0.950195 6.68555 0.792969 6.68555 0.62207C6.68555 0.266602 6.41211 0 6.05664 0C5.87891 0 5.72852 0.0615234 5.6123 0.177734L0.191406 5.48242C0.0615234 5.60547 0 5.7627 0 5.93359Z" fill="#000000" fill-opacity="0.85"/>
 </g>
</svg>
