<svg width="49" height="48" viewBox="0 0 49 48" fill="none" xmlns="http://www.w3.org/2000/svg">
<path d="M12.5 36.001H24.5V30.001H12.5V36.001ZM12.5 27.001H36.5V21.001H12.5V27.001ZM12.5 18.001H36.5V12.001H12.5V18.001ZM6.5 48.001C4.85 48.001 3.4375 47.4135 2.2625 46.2385C1.0875 45.0635 0.5 43.651 0.5 42.001V6.00098C0.5 4.35098 1.0875 2.93848 2.2625 1.76348C3.4375 0.588477 4.85 0.000976562 6.5 0.000976562H42.5C44.15 0.000976562 45.5625 0.588477 46.7375 1.76348C47.9125 2.93848 48.5 4.35098 48.5 6.00098V42.001C48.5 43.651 47.9125 45.0635 46.7375 46.2385C45.5625 47.4135 44.15 48.001 42.5 48.001H6.5ZM6.5 42.001H42.5V6.00098H6.5V42.001Z" fill="#ADEFF6"/>
</svg>
