<?xml version="1.0" standalone="no"?><!DOCTYPE svg PUBLIC "-//W3C//DTD SVG 1.1//EN" "http://www.w3.org/Graphics/SVG/1.1/DTD/svg11.dtd"><svg t="1727264057193" class="icon" viewBox="0 0 1024 1024" version="1.1" xmlns="http://www.w3.org/2000/svg" p-id="6462" xmlns:xlink="http://www.w3.org/1999/xlink" width="48" height="48"><path d="M512 286.052174c-24.486957 0-44.521739-20.034783-44.521739-44.521739V50.086957c0-24.486957 20.034783-44.521739 44.521739-44.52174s44.521739 20.034783 44.521739 44.52174v191.443478c0 24.486957-20.034783 44.521739-44.521739 44.521739z m-132.452174 43.408696c20.034783-14.469565 24.486957-42.295652 10.017391-62.330435L276.034783 112.417391c-14.469565-20.034783-42.295652-24.486957-62.330435-10.017391-20.034783 14.469565-24.486957 42.295652-10.017391 62.330435l112.417391 154.713043c8.904348 12.243478 22.26087 17.808696 35.617391 17.808696 10.017391 1.113043 20.034783-2.226087 27.826087-7.791304z m-82.365217 112.417391c7.791304-23.373913-5.565217-48.973913-28.939131-55.652174L85.704348 327.234783c-23.373913-7.791304-48.973913 5.565217-55.652174 28.93913-7.791304 22.26087 5.565217 47.86087 28.93913 55.652174l182.539131 58.991304c4.452174 1.113043 8.904348 2.226087 13.356522 2.226087 18.921739 0 35.617391-12.243478 42.295652-31.165217z m-211.478261 254.886956l182.53913-58.991304c23.373913-7.791304 36.730435-32.278261 28.939131-55.652174-7.791304-23.373913-32.278261-35.617391-55.652174-28.93913L58.991304 612.173913c-23.373913 7.791304-36.730435 32.278261-28.93913 55.652174 5.565217 18.921739 23.373913 31.165217 42.295652 31.165217 4.452174 0 8.904348 0 13.356522-2.226087z m190.330435 214.817392L389.565217 756.869565c14.469565-20.034783 10.017391-47.86087-10.017391-62.330435s-47.86087-10.017391-62.330435 10.017392L204.8 859.269565c-14.469565 20.034783-10.017391 47.86087 10.017391 62.330435 7.791304 5.565217 16.695652 8.904348 25.6 8.904348 13.356522 0 26.713043-6.678261 35.617392-18.921739zM556.521739 973.913043V782.469565c0-24.486957-20.034783-44.521739-44.521739-44.521739s-44.521739 20.034783-44.521739 44.521739v191.443478c0 24.486957 20.034783 44.521739 44.521739 44.52174s44.521739-20.034783 44.521739-44.52174z m253.773913-52.313043c20.034783-14.469565 24.486957-42.295652 10.017391-62.330435L706.782609 704.556522c-14.469565-20.034783-42.295652-24.486957-62.330435-10.017392-20.034783 14.469565-24.486957 42.295652-10.017391 62.330435l112.417391 154.713044c8.904348 12.243478 22.26087 17.808696 35.617391 17.808695 10.017391 1.113043 20.034783-2.226087 27.826087-7.791304z m183.652174-252.66087c7.791304-23.373913-5.565217-48.973913-28.93913-55.652173l-182.539131-58.991305c-23.373913-7.791304-48.973913 5.565217-55.652174 28.939131-7.791304 23.373913 5.565217 48.973913 28.939131 55.652174l182.53913 58.991304c4.452174 1.113043 8.904348 2.226087 13.356522 2.226087 18.921739-1.113043 36.730435-13.356522 42.295652-31.165218z m-211.478261-198.121739L965.008696 411.826087c23.373913-7.791304 36.730435-32.278261 28.93913-55.652174-7.791304-23.373913-32.278261-35.617391-55.652174-28.93913l-182.53913 58.991304c-23.373913 7.791304-36.730435 32.278261-28.939131 55.652174 5.565217 18.921739 23.373913 31.165217 42.295652 31.165217 4.452174 0 8.904348-1.113043 13.356522-2.226087z m-75.686956-151.373913l112.417391-154.713043c14.469565-20.034783 10.017391-47.86087-10.017391-62.330435-20.034783-14.469565-47.86087-10.017391-62.330435 10.017391L634.434783 267.130435c-14.469565 20.034783-10.017391 47.86087 10.017391 62.330435 7.791304 5.565217 16.695652 8.904348 25.6 8.904347 14.469565 0 27.826087-6.678261 36.730435-18.921739z" p-id="6463" fill="#31728C"></path></svg>