<svg width="108" height="28" viewBox="0 0 108 28" fill="none" xmlns="http://www.w3.org/2000/svg">
<g clip-path="url(#clip0_5994_9557)">
<path fill-rule="evenodd" clip-rule="evenodd" d="M38.0701 9.76082C36.6649 7.2977 34.4415 5.61466 31.9499 4.8603C33.3043 5.65467 34.481 6.80907 35.319 8.28066C37.8726 12.7611 36.3574 18.4875 31.933 21.0734C27.5086 23.6594 21.8539 22.125 19.3003 17.6445C18.8686 16.8844 18.5526 16.0901 18.3466 15.2814C18.372 17.0444 18.8291 18.8275 19.7631 20.4648C22.6807 25.5853 29.1452 27.3398 34.2016 24.3824C39.2581 21.4278 40.9906 14.8814 38.0701 9.76082ZM35.1469 14.1699C35.0199 13.4041 34.7575 12.6468 34.3512 11.9353C32.5255 8.73499 28.4877 7.64059 25.3274 9.4865C22.1671 11.3324 21.0864 15.4243 22.9092 18.6246C23.3156 19.3361 23.8319 19.9447 24.4217 20.4391C22.802 19.799 21.3799 18.6189 20.4431 16.9759C18.6146 13.7698 19.2185 9.82082 21.6733 7.31199C22.2151 6.79764 22.8161 6.33474 23.4764 5.9347C27.2462 3.8259 32.0092 5.15461 34.1706 8.9493C35.1074 10.5923 35.4065 12.4297 35.1441 14.1699H35.1469ZM31.2727 19.9162C33.8009 18.4389 34.6672 15.1642 33.2084 12.604C31.7496 10.0437 28.5159 9.16647 25.9877 10.6438C23.4595 12.1211 22.5932 15.3957 24.052 17.956C25.5108 20.5162 28.7445 21.3935 31.2727 19.9162ZM22.9713 4.68599C22.9205 4.71457 22.8697 4.746 22.8189 4.77457C22.7738 4.80029 22.7286 4.82601 22.6835 4.85172C21.9611 5.27463 21.315 5.78039 20.7506 6.35474C16.8285 10.098 15.8042 16.2044 18.6175 21.1334C21.9019 26.8941 29.1734 28.8657 34.8619 25.5396C40.5504 22.2136 42.4974 14.8499 39.2129 9.08932C35.9285 3.32871 28.657 1.35707 22.9685 4.68314L22.9713 4.68599Z" fill="#BFE2F2"/>
<path d="M15.4064 15.1128V22.445C15.4064 22.7079 15.2569 22.8565 14.9973 22.8565H13.2196C12.96 22.8565 12.8133 22.7051 12.8133 22.445V20.4762C11.5181 22.2393 9.47806 23.0251 7.59035 23.0651C3.25624 23.1765 -0.00280762 20.3277 -0.00280762 15.1128C-0.00280762 10.4238 3.36629 7.16055 7.70039 7.16055C12.0345 7.16055 15.4036 10.0094 15.4036 15.1128H15.4064ZM12.8161 15.1128C12.8161 11.7753 10.9651 9.63796 7.70604 9.63796C4.44699 9.63796 2.59596 11.7753 2.59596 15.1128C2.59596 18.4503 4.44699 20.5877 7.70604 20.5877C10.9651 20.5877 12.7061 18.5618 12.8161 15.1128Z" fill="white"/>
<path d="M65.9089 14.2499V22.425C65.9089 22.6879 65.7594 22.8365 65.4998 22.8365H63.7221C63.4625 22.8365 63.3158 22.6851 63.3158 22.425V14.2499C63.3158 10.498 60.9823 9.86084 59.3908 9.86084C57.4269 9.86084 55.4659 10.7609 55.4659 14.2499V22.425C55.4659 22.6879 55.3191 22.8365 55.0595 22.8365H53.2819C53.0223 22.8365 52.8756 22.6851 52.8756 22.425V14.2499C52.8756 10.7609 50.8383 9.86084 48.9506 9.86084C47.3592 9.86084 45.0256 10.498 45.0256 14.2499V22.425C45.0256 22.6879 44.8761 22.8365 44.6193 22.8365H42.8416C42.582 22.8365 42.4325 22.6851 42.4325 22.425V14.2499C42.4325 9.67511 45.1752 7.38629 48.9506 7.38629C51.1741 7.38629 53.0251 8.24924 54.1735 10.0123C55.2486 8.24924 57.173 7.38629 59.3965 7.38629C63.1747 7.38629 65.9146 9.67511 65.9146 14.2499H65.9089Z" fill="white"/>
<path d="M71.129 16.1072C70.8694 16.1072 70.7227 15.9558 70.7227 15.6957V14.5327C70.7227 14.2699 70.8722 14.1213 71.129 14.1213H81.462C81.7216 14.1213 81.8711 14.2727 81.8711 14.5327V15.6957C81.8711 15.9586 81.7216 16.1072 81.462 16.1072H71.129Z" fill="white"/>
<path d="M101.719 15.1128V22.4279C101.719 22.6908 101.572 22.8394 101.313 22.8394H99.5349C99.2753 22.8394 99.1258 22.6879 99.1258 22.4279V20.4762C97.8306 22.2393 95.7934 23.0251 93.9028 23.0651C89.5687 23.1765 86.3097 20.3277 86.3097 15.1128C86.3097 10.4238 89.6816 7.16055 94.0129 7.16055C98.3442 7.16055 101.716 10.0094 101.716 15.1128H101.719ZM99.1286 15.1128C99.1286 11.7753 97.2776 9.63796 94.0185 9.63796C90.7595 9.63796 88.9085 11.7753 88.9085 15.1128C88.9085 18.4503 90.7595 20.5877 94.0185 20.5877C97.2776 20.5877 99.0186 18.5618 99.1286 15.1128Z" fill="#BFE2F2"/>
<path d="M106.073 0.156952C107.111 0.156952 108 1.05705 108 2.10859C108 3.16013 107.111 4.06022 106.073 4.06022C105.034 4.06022 104.146 3.19727 104.146 2.10859C104.146 1.0199 104.998 0.156952 106.073 0.156952ZM107.334 22.4222C107.334 22.6851 107.187 22.8336 106.928 22.8336H105.15C104.891 22.8336 104.744 22.6822 104.744 22.4222V7.77776C104.744 7.51487 104.893 7.36629 105.15 7.36629H106.928C107.187 7.36629 107.334 7.51773 107.334 7.77776V22.4193V22.4222Z" fill="#BFE2F2"/>
</g>
<defs>
<clipPath id="clip0_5994_9557">
<rect width="108" height="27" fill="white" transform="translate(0 0.156952)"/>
</clipPath>
</defs>
</svg>
