<svg width="305" height="169" viewBox="0 0 305 169" fill="none" xmlns="http://www.w3.org/2000/svg">
    <g clip-path="url(#tbmnva01la)">
        <path d="M67.025 166.783s-19.258-15.813-14.173-27.808c5.083-11.996 7.03-24.62-.117-34.574-7.147-9.952-4.199-63.157 24.48-54.863 28.678 8.294 65.227 9.99 75.859-3.976 10.633-13.965 40.517-16.424 57.664-2.488 17.148 13.937 25.183 25.073 24.623 36.174-.56 11.101 3.577 14.426 12.442 25.153 8.865 10.728 5.809 57.271-2.904 62.736l-177.874-.355v.001z" fill="#DDF4FF"/>
        <path d="M211.91 76.203H91.883v78.806H211.91V76.203z" fill="#01A0D5"/>
        <path d="M221.784 164.71H82.016l-5.891-12.124h151.55l-5.891 12.124z" fill="#01A0D5"/>
        <path d="M203.428 81.055H101.586v67.894h101.842V81.055z" fill="#ECF9FE"/>
        <path fill-rule="evenodd" clip-rule="evenodd" d="M172.038 111.191c0 10.616-8.606 19.222-19.222 19.222-10.616 0-19.222-8.606-19.222-19.222 0-10.616 8.606-19.222 19.222-19.222 10.616 0 19.222 8.606 19.222 19.222zm-19.222 12.772c7.054 0 12.772-5.718 12.772-12.772 0-7.053-5.718-12.772-12.772-12.772-7.053 0-12.772 5.719-12.772 12.772 0 7.054 5.719 12.772 12.772 12.772z" fill="#01A0D5"/>
        <path fill="#01A0D5" d="m152.289 116.961 5.274-5.274 21.615 21.615-5.274 5.274z"/>
        <path d="M166.922 111.32c0 7.719-6.258 13.977-13.977 13.977s-13.976-6.258-13.976-13.977 6.257-13.976 13.976-13.976c7.719 0 13.977 6.257 13.977 13.976z" fill="#fff"/>
        <path d="M152.945 100.589c2.207-.193 7.232 1.039 9.676 7.507" stroke="#01A0D5" stroke-width="2" stroke-linecap="round"/>
        <path d="M162.413 156.219h-21.025c-.555 0-1.005.42-1.005.938v1.761c0 .518.45.938 1.005.938h21.025c.555 0 1.005-.42 1.005-.938v-1.761c0-.518-.45-.938-1.005-.938z" fill="#0D7CA0"/>
        <path d="M43 116.305a.297.297 0 0 1-.018-.593l15.977-1.008a.297.297 0 1 1 .038.593l-15.977 1.008H43zM40.09 99.631a.296.296 0 0 1-.294-.252L37.58 84.521a.298.298 0 0 1 .589-.089l2.214 14.858a.298.298 0 0 1-.25.338l-.043.003h-.002zM241.431 83.695a.297.297 0 0 1-.105-.577l17.159-6.528a.298.298 0 1 1 .212.557l-17.159 6.529a.295.295 0 0 1-.107.02z" fill="#fff"/>
        <path d="M204.393 73.334a.311.311 0 0 1-.277-.167l-3.627-6.898a.312.312 0 0 1 .552-.29l3.627 6.898a.312.312 0 0 1-.275.457zM209.093 72.673a.312.312 0 0 1-.312-.312V61.139a.311.311 0 0 1 .623 0v11.222c0 .172-.14.312-.311.312zM214.282 72.669a.312.312 0 0 1-.301-.398l2.018-6.96a.312.312 0 0 1 .6.173l-2.018 6.96a.311.311 0 0 1-.299.225z" fill="#2B3674"/>
        <path d="M71.501 22.85a.312.312 0 0 1-.27-.467c.174-.304.366-.615.553-.917 1.064-1.715 2.067-3.336.65-4.74l-.305-.3c-1.968-1.928-4.941-4.843-3.584-9.545.368-1.276.224-2.408-.43-3.36-1.178-1.717-3.679-2.374-3.974-2.4a.306.306 0 0 1-.305-.31c0-.171.146-.311.319-.311.209 0 2.92.6 4.354 2.503.866 1.149 1.08 2.513.635 4.053-1.255 4.346 1.558 7.104 3.42 8.927l.308.302c1.77 1.753.532 3.75-.558 5.51-.184.296-.374.603-.544.899a.31.31 0 0 1-.27.156h.001z" fill="#FFC655"/>
        <path d="M295.959 114.3c4.47-1.083 7.846-2.982 7.54-4.24-.306-1.259-4.177-1.401-8.647-.318-4.47 1.083-7.846 2.981-7.54 4.24.305 1.258 4.177 1.401 8.647.318z" fill="#FF788B"/>
        <path d="M286.094 57.395c.918.917-.975 4.292-4.227 7.538-3.253 3.247-6.633 5.138-7.55 4.222-.917-.917.975-4.292 4.228-7.538 3.253-3.248 6.633-5.138 7.549-4.222z" fill="#FFC655"/>
        <path d="M12.961 105.248c-.917.917-4.298-.973-7.549-4.221-3.251-3.248-5.145-6.623-4.227-7.538.917-.916 4.298.973 7.549 4.221 3.252 3.248 5.145 6.623 4.227 7.538z" fill="#81A1FF"/>
        <path d="m209.27 22.767-.025.005a.312.312 0 0 1-.34-.282c-.006-.07-.605-7.126 4.123-7.66 2.088-.238 4.228-1.221 5.872-2.7 1.633-1.471 2.5-3.193 2.375-4.722-.14-1.713.385-3.242 1.475-4.306 1.172-1.14 2.892-1.655 4.845-1.447a.312.312 0 1 1-.067.62c-1.765-.187-3.306.265-4.344 1.274-.954.93-1.412 2.283-1.289 3.808.29 3.547-4.07 7.555-8.798 8.091-4.126.469-3.577 6.919-3.571 6.985a.314.314 0 0 1-.257.336l.001-.002z" fill="#4EA3EA"/>
        <path d="M18.46 143.333c-1.67 0-3.63-.52-5.953-1.954-4.683-2.892-7.9 1.452-8.035 1.638a.313.313 0 0 1-.507-.363c.036-.051 3.688-5.005 8.87-1.804 4.867 3.006 8.025 1.763 10.232.347a.312.312 0 1 1 .339.524c-1.3.834-2.905 1.612-4.948 1.612h.001z" fill="#FF5360"/>
        <path d="M272.856 144.592a.23.23 0 0 1-.225-.182l-2.595-12.532a.23.23 0 0 1 .45-.093l2.594 12.531a.23.23 0 0 1-.224.276z" fill="#fff"/>
        <path d="M245.467 48.64s-5.291-2.766-3.261-4.333c2.032-1.568 3.124-.9 3.572-1.996.446-1.096-1.944-4.235 1.086-4.344 3.031-.11 3.853 1.434 3.887 2.842.033 1.407 1.053.052 2.567.195 1.514.142 2.343.765 1.806 2.123-.537 1.358.245 2.376 1.203 3.482.957 1.106 1.86 3.707.742 6.336-1.116 2.63-2.518 5.081-5 3.832-2.483-1.25-3.629-6.401-3.629-6.401l-2.973-1.737z" fill="#2E2B3F"/>
        <path d="m252.264 55.462-5.092-.039.342-2.053.347-2.073 1.755-2.054.037-.042.382-.103.018-.007.943-.255.141.744v.002l1.124 5.878.003.002z" fill="#FF8376"/>
        <path d="M250.69 49.576s-.459.075-.01.078c-.008.11.189 3.49-3.164 3.71l.346-2.072 1.755-2.054c.218-.077.369-.129.419-.145l.018-.007.752.488h-.116v.002z" fill="#FF8167"/>
        <path d="m213.607 56.387-2.263-2.567-2.782 7.951 10.659 3.187s1.507-1.923 1.596-2.01c.089-.087.013-1.64.013-1.64 0-.072-.568-1.113-1.246-2.332l-5.976-2.588-.001-.001z" fill="#FF8376"/>
        <path d="m265.047 143.117 2.562 15.432h8.534v-14.38l-11.096-1.052zM237.637 142.07l-.981 15.613 8.315 1.927 3.239-14.009-10.573-3.531z" fill="#FFB18C"/>
        <path d="m244.829 45.047 6.146.046-.042 5.622a1.589 1.589 0 0 1-1.598 1.576l-2.975-.022a1.588 1.588 0 0 1-1.574-1.6l.042-5.622h.001z" fill="#FF8376"/>
        <path d="M253.128 48.859a1.131 1.131 0 1 1-2.262-.016 1.131 1.131 0 0 1 2.262.016z" fill="#FF8376"/>
        <path d="M244.23 46.208s.839-.5 1.696-.779c.858-.28 1.494-.033 1.202.8-.292.833 1.021 1.436 1.333.8.312-.634.98-1.795 1.632-1.02.652.775 2.044 1.136 2.044 1.136l.703-1.49s.206-1.317-.998-1.633c-1.205-.317-2.363-.963-4.033-.778-1.67.185-2.128-.17-2.968.505-.839.674-.946.366-.95 1.004-.004.638.339 1.453.339 1.453v.002z" fill="#2E2B3F"/>
        <path d="m246.672 69.09-2.111 12.38s-3.28 4.109-12.469-.092c-5.528-2.528-10.08-8.12-12.83-12.174-1.819-2.684-2.848-4.692-2.848-4.692l4.684-4.14 2.239 1.71 9.723 7.434 8.57-9.696 5.043 9.27h-.001z" fill="#0D7CA0"/>
        <path d="m240.677 87.964-5.927 64.488h13.125l11.239-48.135-2.633-16.353-5.491-2.901-10.313 2.9z" fill="#FF9831"/>
        <path d="m248.375 89.023 16.015 63.433h15.409l-11.194-61.981-20.23-1.452z" fill="#FFC33E"/>
        <path d="M269.917 95.094c-.273.768-.748 1.286-1.496 1.415-.82.14-4.091.037-8.148-.266a193.252 193.252 0 0 1-5.087-.451l-.908-.096c-2.945-.32-5.894-.72-8.357-1.187-.463-.088-.91-.178-1.334-.27-.167-.036-.33-.074-.491-.11-2.29-.528-3.904-1.13-4.266-1.789-1.56-2.826-2.01-24.81-.475-30.425.715-2.618 2.519-4.55 4.241-5.867a17.696 17.696 0 0 1 2.273-1.47c.169-.09.327-.175.474-.25a12.035 12.035 0 0 1 1.095-.496l4.452-.332 1.478 1.837.285.354 1.588 1.975 3.603 4.48s3.216 4.596 5.211 7.865c1.504 2.463 3.275 8.968 4.459 13.684l.001.004c.387 1.542.71 2.895.941 3.85.651 2.698 1.09 5.779.462 7.544h-.001z" fill="#0D7CA0"/>
        <path d="M269.917 95.098c-.273.768-.748 1.287-1.496 1.416-.819.14-4.091.037-8.148-.266 2.449-5.666 2.962-15.936 2.962-15.936l5.276 3.389.002.004c.386 1.542.709 2.895.941 3.85.651 2.698 1.089 5.779.462 7.544l.001-.001z" fill="#0D7CA0"/>
        <path d="m267.908 95.582-1.119 7.423 2.672.724 1.471-2.934 1.407 5.593 4.991-3.963-3.794-9.48-5.232 1.103-.396 1.534z" fill="#FF8376"/>
        <path d="m274.763 93.916-4.847 1.176-3.598.873s-.356-1.083-.933-2.82c-2.198-6.624-7.598-22.763-8.694-24.86-.478-.915-1.323-2.182-2.222-3.444-.355-.5-.72-1-1.077-1.479-.039-.056-.079-.108-.119-.162-1.288-1.731-2.404-3.133-2.404-3.133l-1.635-4.629.01-1.274 2.644-.664s.599.213 1.559.578c.099.04.203.078.308.119.531.203 1.148.446 1.825.719 3.864 1.558 9.608 4.129 11.347 6.237 2.088 2.533 5.343 17.765 6.935 26.848.465 2.653.787 4.784.898 5.917l.003-.002z" fill="#0D7CA0"/>
        <path d="M255.808 95.853c-.207-.02-.415-.04-.622-.063-.303-.031-.604-.063-.908-.096-2.944-.32-5.894-.719-8.359-1.186-2.875-17.594-1.285-31.142-.122-37.513.203-1.112.394-2.007.544-2.665.666-.336 1.095-.498 1.095-.498l4.452-.332s.599.213 1.559.578c-.034.388-.06.809-.082 1.259-.016.335-.03.684-.041 1.05-.056 1.954-.025 4.338.066 6.974.367 10.655 1.722 25.403 2.415 32.494l.003-.002z" fill="#fff"/>
        <path d="M253.448 54.075c-.034.388-.06.81-.082 1.26-.016.334-.03.684-.041 1.049-.975.665-2.578 1.097-4.391 1.097-1.17 0-2.253-.181-3.137-.488a60.92 60.92 0 0 1 .544-2.666 12.602 12.602 0 0 1 1.094-.498l2.017-.868 2.436.536s.599.213 1.559.578h.001z" fill="#FF8376"/>
        <path d="m274.76 93.917-4.847 1.175-3.597.873s-.356-1.083-.933-2.82L273.862 88c.466 2.653.788 4.784.898 5.917z" fill="#fff"/>
        <path d="M278.917 167.227h-24.503s.51-.743 1.402-1.687c1.623-1.719 4.518-4.105 7.921-3.885 5.272.341 2.834-4.788 2.834-4.788h10.041s2.072 4.605 2.376 8.673a6.702 6.702 0 0 1-.071 1.687z" fill="#0D7CA0"/>
        <path d="M278.917 167.226h-24.503s.51-.743 1.402-1.687h23.172a6.698 6.698 0 0 1-.071 1.687z" fill="#FFC155"/>
        <path d="M272.716 162.781a1.71 1.71 0 0 0 1.709-1.711 1.71 1.71 0 1 0-3.417 0 1.71 1.71 0 0 0 1.708 1.711z" fill="#fff"/>
        <path d="M267.947 161.631a.249.249 0 0 1-.148-.048l-2.562-1.859a.254.254 0 0 1 .298-.41l2.562 1.859a.254.254 0 0 1-.15.458zM265.893 162.506a.247.247 0 0 1-.148-.048l-2.562-1.859a.252.252 0 0 1-.056-.354.253.253 0 0 1 .353-.056l2.562 1.859a.253.253 0 0 1-.149.458z" fill="#2E2B3F"/>
        <path d="M248.026 167.227h-24.503s.51-.743 1.402-1.687c1.623-1.719 4.518-4.105 7.921-3.885 5.272.341 2.835-4.788 2.835-4.788h10.041s2.071 4.605 2.375 8.673a6.702 6.702 0 0 1-.071 1.687z" fill="#0D7CA0"/>
        <path d="M248.026 167.226h-24.503s.51-.743 1.402-1.687h23.172a6.698 6.698 0 0 1-.071 1.687z" fill="#FFC155"/>
        <path d="M241.826 162.781a1.71 1.71 0 0 0 1.708-1.711 1.71 1.71 0 1 0-3.417 0 1.71 1.71 0 0 0 1.709 1.711z" fill="#fff"/>
        <path d="M237.057 161.631a.247.247 0 0 1-.148-.048l-2.562-1.859a.252.252 0 0 1-.056-.354.253.253 0 0 1 .353-.056l2.562 1.859a.253.253 0 0 1-.149.458zM235.002 162.506a.247.247 0 0 1-.148-.048l-2.562-1.859a.253.253 0 1 1 .297-.41l2.562 1.859a.253.253 0 0 1-.149.458z" fill="#2E2B3F"/>
        <path d="M270.216 142.3a.23.23 0 0 1-.226-.181l-8.43-37.641a.232.232 0 0 1 .452-.102l8.43 37.642a.234.234 0 0 1-.175.277.226.226 0 0 1-.051.005z" fill="#fff"/>
        <path d="M219.587 58.971c-1.004-1.804-2.249-3.994-2.249-3.994l-5.182.196.446 3.169 3.019-.564 3.968 1.195-.002-.002z" fill="#FF8376"/>
        <path d="M251.141 41.82a6.176 6.176 0 0 1 .602-1.511c.142-.24.307-.472.525-.675a1.63 1.63 0 0 1 .832-.434h.009a.29.29 0 1 1 .044.573 1.118 1.118 0 0 0-.618.2 2.626 2.626 0 0 0-.557.502 5.035 5.035 0 0 0-.461.639 6.637 6.637 0 0 0-.376.706z" fill="#2E2B3F"/>
        <path d="m55.398 153.043 1.74 8.164 8.877-.318-.471-8.498-10.146.652zM34.5 151.523l.579 9.216 8.913-.169 1.982-8.296s-6.522-.339-7.9-.387c-1.375-.048-3.574-.364-3.574-.364z" fill="#FFB18C"/>
        <path d="M79.946 165.868v1.659h-24.09v-1.896c-2.273-2.7.283-6.303.283-6.303h10.175c-.046 3.128 4.498 3.317 8.095 3.128 3.033-.159 4.888 2.377 5.396 3.175a3.9 3.9 0 0 1 .141.237z" fill="#4EA3EA"/>
        <path d="M79.942 165.87v1.658h-24.09v-1.895H79.8c.095.148.141.237.141.237z" fill="#0D7CA0"/>
        <path d="M69.983 163.65a.55.55 0 0 1-.407-.147c-.252-.253-.177-.763.216-1.479.365-.664.966-1.43 1.691-2.155.725-.726 1.49-1.328 2.153-1.694.714-.393 1.226-.469 1.477-.216.252.253.176.763-.216 1.478-.366.665-.967 1.431-1.692 2.156-1.1 1.102-2.46 2.058-3.223 2.058l.001-.001zm4.722-5.605c-.552 0-1.769.702-3.054 1.989-.71.711-1.296 1.458-1.65 2.104-.324.587-.42 1.035-.257 1.198.329.328 1.764-.375 3.297-1.909 1.534-1.536 2.237-2.973 1.908-3.303-.054-.053-.136-.079-.242-.079h-.002z" fill="#FFC655"/>
        <path d="M69.56 163.089a.331.331 0 0 1-.061-.007c-.257-.047-.42-.372-.478-.943-.05-.516-.009-1.177.117-1.865.128-.688.324-1.321.557-1.785.256-.512.527-.758.782-.71.256.047.42.373.477.943.05.516.01 1.178-.117 1.866-.127.688-.324 1.321-.557 1.784-.235.471-.482.715-.72.715v.002zm.857-5.078c-.104 0-.294.151-.511.585-.223.443-.413 1.055-.535 1.722-.124.667-.164 1.305-.114 1.799.05.512.185.715.286.735.1.017.298-.124.53-.584.222-.443.412-1.055.534-1.722.123-.667.164-1.305.114-1.799-.05-.512-.186-.715-.286-.734l-.018-.002z" fill="#FFC655"/>
        <path d="M62.284 163.679a1.637 1.637 0 0 0 0-2.312 1.632 1.632 0 0 0-2.31 0 1.637 1.637 0 0 0 0 2.312 1.63 1.63 0 0 0 2.31 0z" fill="#fff"/>
        <path d="m59.242 97.773 7.15 56.937H54.46l-8.623-36.135.637-12.917 12.769-7.885z" fill="#0D7CA0"/>
        <path d="m54.455 100.006-7.985 54.71H33.875l2.022-34.899.03-.496.992-17.139 11.353-3.58 6.183 1.404z" fill="#0D7CA0"/>
        <path d="M45.78 61.432s-2.289-3.7-1.324-4.86c.965-1.16 2.706-.581 4.01-.87 1.304-.29 1.062-2.564 3.332-2.806 2.27-.242 3.383.533 2.802 1.693-.58 1.161-.855 1.698.153 2.349 1.008.651 1.056 2.102-.635 2.15-1.691.049-4.71-.386-5.424-.29-.712.096-1.679.048-2.065.29-.387.243-.852 2.345-.852 2.345l.002-.001z" fill="#2E2B3F"/>
        <path d="M49.53 66.802h-4.686l.932-5.363.036-.198.023-.132.363.09 2.136.523.363.582.479 2.582.355 1.916z" fill="#FF8376"/>
        <path d="M49.177 64.883c-2.29-.19-3.028-2.735-3.237-3.454l-.127-.19.387-.044 2.136.524.363.58.479 2.583-.001.001z" fill="#FF8167"/>
        <path d="M45.83 57.156h5.725v5.349a1.48 1.48 0 0 1-1.478 1.48h-2.771a1.48 1.48 0 0 1-1.478-1.48v-5.349h.001z" fill="#FF8376"/>
        <path d="M44.912 62.022a.99.99 0 1 0-.001-1.982.99.99 0 0 0 0 1.982z" fill="#FF8376"/>
        <path d="M45.016 111.023c-1.04 2.572-2.506 4.665-4.358 6.22a13.526 13.526 0 0 1-4.76 2.569l.03-.496c3.982-1.272 6.88-4.102 8.647-8.457 1.733-4.274 1.663-8.49 1.661-8.532a.236.236 0 1 1 .472-.01c0 .043.075 4.344-1.69 8.705l-.002.001z" fill="#0D7CA0"/>
        <path d="m60.836 101.019-13.98 3.457-.473.117-10.766 2.667.942-13.933.293-1.386c.307-1.45.82-3.857 1.349-6.337.925-4.314 1.907-8.852 1.982-8.966.145-.217 3.26-5.66 3.26-5.66l1.646-5.447 4.22.076s6.744 1.236 8.41 4.138c1.668 2.902 5.434 13.206 3.116 31.274h.001z" fill="#FFC33E"/>
        <path d="M56.332 87.901a.87.87 0 1 1-1.74.002.87.87 0 0 1 1.74-.002z" fill="#2E2B3F"/>
        <path d="M52.57 100.528c-.007 0-.017 0-.026-.002a.237.237 0 0 1-.21-.259c2.428-22.58-3.233-30.814-3.29-30.894a.237.237 0 0 1 .054-.33.237.237 0 0 1 .33.055c.06.085 1.489 2.126 2.629 7.014 1.045 4.486 2.024 12.327.748 24.206a.236.236 0 0 1-.235.211v-.001z" fill="#FF9831"/>
        <path d="M52.16 57.834s-3.164-.533-3.986-.195c-.822.34.265.847.52 1.307.253.46-3.201.096-3.274 0-.073-.096-.411-1.645-.411-1.645s-.411-.29.411-.484c.822-.192-.242-.313 1.908-.29 2.15.025 1.764-.218 3.406.096 1.642.314 1.667-.242 1.812.387.146.63-.386.822-.386.822v.002z" fill="#2E2B3F"/>
        <path d="m14.345 67.336-8.609-9.352-2.158 2.576 8.092 10.58 2.465-1.909.039-1.872.171-.023z" fill="#FF8376"/>
        <path d="m7.582 63.978-2.465 3.5 6.203 6.038 1.656-3.917s.231-1.003-.733-2.006c-.962-1.003-4.66-3.616-4.66-3.616zM80.773 44.844l5.521-11.453 2.813 1.835-4.668 12.477-2.914-1.107-.58-1.78-.172.028z" fill="#FF8376"/>
        <path d="m46.855 104.476-.472.118-10.766 2.666.942-13.932.293-1.386c.307-1.45.82-3.857 1.349-6.337a22.557 22.557 0 0 1 3.105-.84s-2.055 14.612 5.55 19.713v-.002z" fill="#FF9831"/>
        <path d="m86.264 39.656 3.376 2.632-4.181 7.583-2.723-3.264s-.513-.892.117-2.133c.63-1.24 3.41-4.816 3.41-4.816v-.002z" fill="#FF8376"/>
        <path d="M44.838 53.63a3.954 3.954 0 0 1 .63.575c.183.208.345.437.473.68.133.243.216.51.263.777.052.267.027.54-.01.797-.01-.263-.037-.522-.132-.76-.09-.237-.21-.46-.368-.654a3.174 3.174 0 0 0-.53-.52 3.402 3.402 0 0 0-.612-.379.297.297 0 1 1 .289-.515h-.003z" fill="#2E2B3F"/>
        <path d="M44.691 55.281c.177.013.327.047.483.095.153.049.302.114.438.196a1.364 1.364 0 0 1 .595.702 1.325 1.325 0 0 0-.293-.336 1.32 1.32 0 0 0-.377-.213 1.79 1.79 0 0 0-.418-.097c-.139-.016-.29-.02-.416-.004h-.004a.17.17 0 1 1-.008-.339v-.004z" fill="#2E2B3F"/>
        <path d="m44.961 66.256-.297-1.174a.26.26 0 0 1 .264-.324l5.204.233a.262.262 0 0 1 .243.317c-.074.338-.196.853-.268.95-.109.144.309.544-1.087.707-1.396.162-4.059-.708-4.059-.708z" fill="#FF9831"/>
        <path d="M58.353 165.868v1.659H34.262v-1.896c-2.273-2.7.283-6.303.283-6.303h10.176c-.047 3.128 4.497 3.317 8.094 3.128 3.034-.159 4.889 2.377 5.396 3.175.095.149.142.237.142.237z" fill="#4EA3EA"/>
        <path d="M58.349 165.87v1.658H34.258v-1.895h23.949c.095.148.142.237.142.237z" fill="#0D7CA0"/>
        <path d="M48.389 163.65c-.172 0-.309-.048-.406-.146-.56-.56.566-2.291 1.907-3.635.724-.726 1.49-1.328 2.153-1.694.714-.393 1.225-.469 1.476-.216.253.253.177.763-.216 1.478-.365.665-.966 1.431-1.69 2.156-.725.726-1.49 1.328-2.154 1.694-.438.241-.798.363-1.07.363zm4.726-5.602c-.224 0-.558.114-.958.334-.645.356-1.39.943-2.1 1.653-1.534 1.536-2.237 2.973-1.908 3.302.33.33 1.764-.375 3.298-1.909.71-.711 1.296-1.458 1.65-2.104.323-.587.42-1.035.257-1.198-.052-.052-.134-.078-.24-.078z" fill="#FFC655"/>
        <path d="M47.967 163.089a.333.333 0 0 1-.062-.007c-.257-.047-.42-.372-.478-.943-.05-.516-.009-1.177.117-1.865.128-.688.324-1.321.557-1.785.256-.512.527-.758.782-.71.256.047.42.373.477.943.051.516.01 1.178-.117 1.866-.127.688-.324 1.321-.556 1.784-.236.471-.483.715-.72.715v.002zm.856-5.078c-.104 0-.294.151-.511.585-.222.443-.412 1.055-.535 1.722-.123.667-.164 1.305-.114 1.799.05.512.186.715.286.735.099.015.298-.124.53-.584.222-.443.412-1.055.534-1.722.124-.667.164-1.305.115-1.799-.051-.512-.187-.715-.287-.734l-.018-.002z" fill="#FFC655"/>
        <path d="M40.164 164.036a1.636 1.636 0 0 0 .884-2.136 1.633 1.633 0 1 0-3.017 1.251c.345.834 1.3 1.23 2.133.885zM40.93 152.628h-.022a.233.233 0 0 1-.212-.256l3.24-34.831a.236.236 0 0 1 .468.045l-3.24 34.83a.236.236 0 0 1-.233.213v-.001z" fill="#fff"/>
        <path d="M48.264 151.016H32.219v3.696h16.045v-3.696z" fill="#0D7CA0"/>
        <path d="M67.897 151.016H51.852v3.696h16.045v-3.696z" fill="#0D7CA0"/>
        <path d="M53.738 72.644a.87.87 0 1 1-1.739 0 .87.87 0 0 1 1.739 0zM54.603 81.373a.87.87 0 1 0 0-1.739.87.87 0 0 0 0 1.74z" fill="#2E2B3F"/>
        <path d="m47.494 73.996-1.683 13.026s-6.363 9.656-18.96 4.882c-6.951-2.634-11.72-8.225-14.6-12.707-2.34-3.643-3.43-6.555-3.43-6.555l5.892-5.657 2.08 1.684 12.136 9.84c8.206-12.981 16.057-12.443 16.057-12.443l2.507 7.93h.001zM87.871 45.99s-.856 2.675-2.032 6.144c-1.523 4.491-3.584 10.315-5.018 13.395-2.542 5.46-21.151 16.686-21.151 16.686l-1.619-3.473-3.598-11.522 15.272-9.406L79.6 45.16l1.337-1.715 6.934 2.546h.001z" fill="#FFC33E"/>
        <path d="m16.792 68.676-4.541 10.528c-2.34-3.643-3.43-6.555-3.43-6.555l5.892-5.657 2.08 1.684zM87.873 45.99s-.856 2.675-2.032 6.144L79.6 45.16l1.338-1.715 6.934 2.546z" fill="#fff"/>
        <path d="M11.486 74.834a.87.87 0 1 0-.001-1.74.87.87 0 0 0 .001 1.74zM85.808 47.706a.87.87 0 1 1-1.739.001.87.87 0 0 1 1.74 0z" fill="#2E2B3F"/>
        <path d="M262.889 11.135h-31.862c-3.83 0-6.933 4.026-6.933 8.99 0 3.678 1.702 6.837 4.14 8.23-1.122 2.551-2.405 5.489-3.387 7.744-.43.988.431 2.074 1.181 1.487l10.816-8.471h26.043c3.83 0 6.933-4.027 6.933-8.991 0-4.967-3.105-8.991-6.933-8.991l.002.002z" fill="#FFC33E"/>
        <path d="M262.586 17.93h-25.154c-.389 0-.705-.509-.705-1.133 0-.625.316-1.133.705-1.133h25.154c.389 0 .705.508.705 1.133 0 .624-.316 1.133-.705 1.133zM262.577 22.46h-7.728c-.39 0-.708-.508-.708-1.132 0-.624.318-1.133.708-1.133h7.728c.391 0 .709.509.709 1.133s-.318 1.133-.709 1.133zM251.278 22.46h-9.512c-.379 0-.688-.508-.688-1.132 0-.624.309-1.133.688-1.133h9.512c.379 0 .687.509.687 1.133s-.308 1.133-.687 1.133z" fill="#fff"/>
    </g>
    <defs>
        <clipPath id="tbmnva01la">
            <path fill="#fff" transform="translate(.953 .5)" d="M0 0h303.1v168H0z"/>
        </clipPath>
    </defs>
</svg>
