<svg xmlns="http://www.w3.org/2000/svg" xmlns:xlink="http://www.w3.org/1999/xlink" fill="none" version="1.1" width="20" height="20" viewBox="0 0 20 20"><defs><clipPath id="master_svg0_2_0"><rect x="0" y="0" width="20" height="20" rx="0"/></clipPath></defs><g clip-path="url(#master_svg0_2_0)"><g><path d="M12.16464,2.50107314L17.5,2.50107314L17.5,7.83643L15.3858,7.83643L15.3858,4.61525L12.16464,4.61525L12.16464,2.50107314ZM15.3858,15.3858L15.3858,12.16464L17.5,12.16464L17.5,17.5L12.16464,17.5L12.16464,15.3858L15.3858,15.3858ZM2.50107314,7.83536L2.50107314,2.5L7.83643,2.5L7.83643,4.61417L4.61525,4.61417L4.61525,7.83536L2.50107314,7.83536ZM4.61417,12.16464L4.61417,15.3858L7.83536,15.3858L7.83536,17.5L2.5,17.5L2.5,12.16464L4.61417,12.16464Z" fill="#000000" fill-opacity="1" style="mix-blend-mode:passthrough"/></g></g></svg>