<svg width="22" height="22" viewBox="0 0 22 22" fill="none" xmlns="http://www.w3.org/2000/svg">
    <path d="M20.165 16.701c0 .432-.175.847-.488 1.152a1.686 1.686 0 0 1-1.178.478h-15c-.442 0-.866-.172-1.179-.478a1.611 1.611 0 0 1-.488-1.152V7.738c0-.432.176-.847.488-1.152A1.686 1.686 0 0 1 3.5 6.109h3.333l1.667-2.445h5l1.666 2.445H18.5c.442 0 .866.171 1.178.477.313.305.488.72.488 1.152v8.963z" stroke="#0D7CA0" stroke-width="2" stroke-linecap="round" stroke-linejoin="round"/>
    <path d="M11 14.664a2.75 2.75 0 1 0 0-5.5 2.75 2.75 0 0 0 0 5.5z" stroke="#0D7CA0" stroke-width="2" stroke-linecap="round" stroke-linejoin="round"/>
</svg>
