<svg width="64" height="64" viewBox="0 0 64 64" fill="none" xmlns="http://www.w3.org/2000/svg">
<path d="M28.8 16H35.2V35.2H28.8V16ZM32 41.6C32.9067 41.6 33.6667 41.9067 34.28 42.52C34.8933 43.1333 35.2 43.8933 35.2 44.8C35.2 45.7067 34.8933 46.4667 34.28 47.08C33.6667 47.6933 32.9067 48 32 48C31.0933 48 30.3333 47.6933 29.72 47.08C29.1067 46.4667 28.8 45.7067 28.8 44.8C28.8 43.8933 29.1067 43.1333 29.72 42.52C30.3333 41.9067 31.0933 41.6 32 41.6ZM32 -9.53674e-07C27.5733 -9.53674e-07 23.4133 0.84 19.52 2.52C15.6267 4.2 12.24 6.48 9.36 9.36C6.48 12.24 4.2 15.6267 2.52 19.52C0.84 23.4133 0 27.5733 0 32C0 36.4267 0.84 40.5867 2.52 44.48C4.2 48.3733 6.48 51.76 9.36 54.64C12.24 57.52 15.6267 59.8 19.52 61.48C23.4133 63.16 27.5733 64 32 64C36.4267 64 40.5867 63.16 44.48 61.48C48.3733 59.8 51.76 57.52 54.64 54.64C57.52 51.76 59.8 48.3733 61.48 44.48C63.16 40.5867 64 36.4267 64 32C64 27.5733 63.16 23.4133 61.48 19.52C59.8 15.6267 57.52 12.24 54.64 9.36C51.76 6.48 48.3733 4.2 44.48 2.52C40.5867 0.84 36.4267 -9.53674e-07 32 -9.53674e-07ZM32 6.4C39.1467 6.4 45.2 8.88 50.16 13.84C55.12 18.8 57.6 24.8533 57.6 32C57.6 39.1467 55.12 45.2 50.16 50.16C45.2 55.12 39.1467 57.6 32 57.6C24.8533 57.6 18.8 55.12 13.84 50.16C8.88 45.2 6.4 39.1467 6.4 32C6.4 24.8533 8.88 18.8 13.84 13.84C18.8 8.88 24.8533 6.4 32 6.4Z" fill="#ADEFF6"/>
</svg>
