<svg width="40" height="40" viewBox="0 0 40 40" fill="none" xmlns="http://www.w3.org/2000/svg">
<path d="M20 30.6087C20.2967 30.6087 20.5867 30.5198 20.8334 30.3533C21.08 30.1868 21.2723 29.9502 21.3858 29.6733C21.4994 29.3965 21.5291 29.0918 21.4712 28.7979C21.4133 28.504 21.2704 28.234 21.0607 28.0221C20.8509 27.8102 20.5836 27.6659 20.2926 27.6075C20.0017 27.549 19.7001 27.579 19.426 27.6937C19.1519 27.8084 18.9176 28.0026 18.7528 28.2517C18.588 28.5009 18.5 28.7938 18.5 29.0935C18.5 29.4954 18.658 29.8807 18.9393 30.1649C19.2206 30.449 19.6022 30.6087 20 30.6087ZM27.5 30.6087C27.7967 30.6087 28.0867 30.5198 28.3334 30.3533C28.58 30.1868 28.7723 29.9502 28.8858 29.6733C28.9994 29.3965 29.0291 29.0918 28.9712 28.7979C28.9133 28.504 28.7704 28.234 28.5607 28.0221C28.3509 27.8102 28.0836 27.6659 27.7926 27.6075C27.5017 27.549 27.2001 27.579 26.926 27.6937C26.6519 27.8084 26.4176 28.0026 26.2528 28.2517C26.088 28.5009 26 28.7938 26 29.0935C26 29.4954 26.158 29.8807 26.4393 30.1649C26.7206 30.449 27.1022 30.6087 27.5 30.6087ZM27.5 24.5481C27.7967 24.5481 28.0867 24.4592 28.3334 24.2927C28.58 24.1262 28.7723 23.8896 28.8858 23.6127C28.9994 23.3359 29.0291 23.0312 28.9712 22.7373C28.9133 22.4434 28.7704 22.1734 28.5607 21.9615C28.3509 21.7496 28.0836 21.6053 27.7926 21.5469C27.5017 21.4884 27.2001 21.5184 26.926 21.6331C26.6519 21.7478 26.4176 21.942 26.2528 22.1911C26.088 22.4403 26 22.7332 26 23.0329C26 23.4347 26.158 23.8201 26.4393 24.1043C26.7206 24.3884 27.1022 24.5481 27.5 24.5481ZM20 24.5481C20.2967 24.5481 20.5867 24.4592 20.8334 24.2927C21.08 24.1262 21.2723 23.8896 21.3858 23.6127C21.4994 23.3359 21.5291 23.0312 21.4712 22.7373C21.4133 22.4434 21.2704 22.1734 21.0607 21.9615C20.8509 21.7496 20.5836 21.6053 20.2926 21.5469C20.0017 21.4884 19.7001 21.5184 19.426 21.6331C19.1519 21.7478 18.9176 21.942 18.7528 22.1911C18.588 22.4403 18.5 22.7332 18.5 23.0329C18.5 23.4347 18.658 23.8201 18.9393 24.1043C19.2206 24.3884 19.6022 24.5481 20 24.5481ZM30.5 6.36624H29V4.85109C29 4.44925 28.842 4.06386 28.5607 3.77972C28.2794 3.49557 27.8978 3.33594 27.5 3.33594C27.1022 3.33594 26.7206 3.49557 26.4393 3.77972C26.158 4.06386 26 4.44925 26 4.85109V6.36624H14V4.85109C14 4.44925 13.842 4.06386 13.5607 3.77972C13.2794 3.49557 12.8978 3.33594 12.5 3.33594C12.1022 3.33594 11.7206 3.49557 11.4393 3.77972C11.158 4.06386 11 4.44925 11 4.85109V6.36624H9.5C8.30653 6.36624 7.16193 6.84514 6.31802 7.69757C5.47411 8.55001 5 9.70617 5 10.9117V32.1238C5 33.3293 5.47411 34.4855 6.31802 35.3379C7.16193 36.1904 8.30653 36.6693 9.5 36.6693H30.5C31.6935 36.6693 32.8381 36.1904 33.682 35.3379C34.5259 34.4855 35 33.3293 35 32.1238V10.9117C35 9.70617 34.5259 8.55001 33.682 7.69757C32.8381 6.84514 31.6935 6.36624 30.5 6.36624ZM32 32.1238C32 32.5257 31.842 32.911 31.5607 33.1952C31.2794 33.4793 30.8978 33.639 30.5 33.639H9.5C9.10218 33.639 8.72064 33.4793 8.43934 33.1952C8.15804 32.911 8 32.5257 8 32.1238V18.4875H32V32.1238ZM32 15.4571H8V10.9117C8 10.5099 8.15804 10.1245 8.43934 9.84032C8.72064 9.55618 9.10218 9.39654 9.5 9.39654H11V10.9117C11 11.3135 11.158 11.6989 11.4393 11.9831C11.7206 12.2672 12.1022 12.4268 12.5 12.4268C12.8978 12.4268 13.2794 12.2672 13.5607 11.9831C13.842 11.6989 14 11.3135 14 10.9117V9.39654H26V10.9117C26 11.3135 26.158 11.6989 26.4393 11.9831C26.7206 12.2672 27.1022 12.4268 27.5 12.4268C27.8978 12.4268 28.2794 12.2672 28.5607 11.9831C28.842 11.6989 29 11.3135 29 10.9117V9.39654H30.5C30.8978 9.39654 31.2794 9.55618 31.5607 9.84032C31.842 10.1245 32 10.5099 32 10.9117V15.4571ZM12.5 24.5481C12.7967 24.5481 13.0867 24.4592 13.3334 24.2927C13.58 24.1262 13.7723 23.8896 13.8858 23.6127C13.9994 23.3359 14.0291 23.0312 13.9712 22.7373C13.9133 22.4434 13.7704 22.1734 13.5607 21.9615C13.3509 21.7496 13.0836 21.6053 12.7926 21.5469C12.5017 21.4884 12.2001 21.5184 11.926 21.6331C11.6519 21.7478 11.4176 21.942 11.2528 22.1911C11.088 22.4403 11 22.7332 11 23.0329C11 23.4347 11.158 23.8201 11.4393 24.1043C11.7206 24.3884 12.1022 24.5481 12.5 24.5481ZM12.5 30.6087C12.7967 30.6087 13.0867 30.5198 13.3334 30.3533C13.58 30.1868 13.7723 29.9502 13.8858 29.6733C13.9994 29.3965 14.0291 29.0918 13.9712 28.7979C13.9133 28.504 13.7704 28.234 13.5607 28.0221C13.3509 27.8102 13.0836 27.6659 12.7926 27.6075C12.5017 27.549 12.2001 27.579 11.926 27.6937C11.6519 27.8084 11.4176 28.0026 11.2528 28.2517C11.088 28.5009 11 28.7938 11 29.0935C11 29.4954 11.158 29.8807 11.4393 30.1649C11.7206 30.449 12.1022 30.6087 12.5 30.6087Z" fill="#0D7CA0"/>
</svg>
