<svg xmlns="http://www.w3.org/2000/svg" xmlns:xlink="http://www.w3.org/1999/xlink" fill="none" version="1.1" width="66" height="66" viewBox="0 0 66 66"><defs><clipPath id="master_svg0_147_97"><rect x="0" y="0" width="66" height="66" rx="0"/></clipPath><clipPath id="master_svg1_147_9"><rect x="8" y="8" width="50" height="50" rx="0"/></clipPath></defs><g clip-path="url(#master_svg0_147_97)"><rect x="0" y="0" width="66" height="66" rx="0" fill="#FFFFFF" fill-opacity="0"/><g clip-path="url(#master_svg1_147_9)"><g><rect x="8" y="8" width="50" height="50" rx="7.400000095367432" fill="#01A0D5" fill-opacity="1"/></g><g><path d="M38.2083,41.451636016845704L38.2083,26.536966016845703C38.2083,25.164016016845704,37.0424,24.051136016845703,35.6042,24.051136016845703L19.97917,24.051136016845703C18.54091,24.051136016845703,17.375,25.164016016845704,17.375,26.536966016845703L17.375,41.451636016845704C17.375,42.8246360168457,18.54091,43.9375360168457,19.97917,43.9375360168457L35.6042,43.9375360168457C37.0419,43.9375360168457,38.2083,42.8246360168457,38.2083,41.451636016845704ZM48.625,40.6490360168457L48.625,27.344846016845704C48.625,26.0242460168457,47.0424,25.253106016845702,45.8911,26.009246016845704L39.944500000000005,29.918636016845703L39.944500000000005,38.070036016845705L45.8906,41.9830360168457C47.0462,42.73963601684571,48.625,41.9644360168457,48.625,40.6490360168457Z" fill="#ffffff" fill-opacity="1"/></g></g></g></svg>