<svg width="22" height="22" viewBox="0 0 22 22" fill="none" xmlns="http://www.w3.org/2000/svg">
    <path fill-rule="evenodd" clip-rule="evenodd" d="M5.592 14.55 8.32 14.3l5.133-5.138-2.471-2.472-5.15 5.149-.241 2.71zm6.62-9.086 2.47 2.47 1.784-1.787-2.47-2.47-1.785 1.787zM3.931 16.21a.92.92 0 0 1-.264-.732l.347-3.822c.039-.42.224-.814.523-1.113l8.246-8.247c.643-.646 1.81-.614 2.49.064l2.51 2.51c.702.703.73 1.82.063 2.488l-8.248 8.248a1.81 1.81 0 0 1-1.112.521l-3.823.348a.92.92 0 0 1-.732-.265zm14.399 3.017a.92.92 0 0 1-.917.917H4.581a.92.92 0 0 1-.917-.917.92.92 0 0 1 .917-.916h12.833a.92.92 0 0 1 .917.916z" fill="#0D7CA0"/>
    <mask id="0kcbo6pypa" style="mask-type:alpha" maskUnits="userSpaceOnUse" x="3" y="1" width="16" height="20">
        <path fill-rule="evenodd" clip-rule="evenodd" d="M5.592 14.55 8.32 14.3l5.133-5.138-2.471-2.472-5.15 5.149-.241 2.71zm6.62-9.086 2.47 2.47 1.784-1.787-2.47-2.47-1.785 1.787zM3.931 16.21a.92.92 0 0 1-.264-.732l.347-3.822c.039-.42.224-.814.523-1.113l8.246-8.247c.643-.646 1.81-.614 2.49.064l2.51 2.51c.702.703.73 1.82.063 2.488l-8.248 8.248a1.81 1.81 0 0 1-1.112.521l-3.823.348a.92.92 0 0 1-.732-.265zm14.399 3.017a.92.92 0 0 1-.917.917H4.581a.92.92 0 0 1-.917-.917.92.92 0 0 1 .917-.916h12.833a.92.92 0 0 1 .917.916z" fill="#fff"/>
    </mask>
</svg>
