<svg width="24" height="24" viewBox="0 0 24 24" fill="none" xmlns="http://www.w3.org/2000/svg">
    <path d="M12 22c5.5 0 10-4.5 10-10S17.5 2 12 2 2 6.5 2 12s4.5 10 10 10z" fill="#fff" stroke="#5F8BFF" stroke-width="1.5" stroke-linecap="round" stroke-linejoin="round"/>
    <path d="M12.833 6c-.31 0-.606.118-.825.33-.22.21-.342.496-.342.795 0 .298.123.584.342.795.219.21.516.33.825.33.31 0 .606-.12.825-.33.219-.21.342-.497.342-.795 0-.299-.123-.585-.342-.796A1.19 1.19 0 0 0 12.833 6zm-.28 3.577c-.926.075-3.454 2.017-3.454 2.017-.156.112-.11.104.015.314.125.203.109.218.257.12.155-.097.412-.255.84-.51 1.65-1.02.265 1.335-.443 5.302-.28 1.964 1.556.952 2.03.652.467-.293 1.72-1.125 1.844-1.207.171-.113.047-.203-.085-.39-.094-.128-.187-.038-.187-.038-.506.323-1.432.997-1.556.57-.148-.427.801-3.359 1.322-5.376.086-.48.32-1.53-.583-1.454z" fill="#5F8BFF" stroke="#5F8BFF" stroke-width=".5"/>
</svg>
