<svg width="16" height="16" viewBox="0 0 16 16" fill="none" xmlns="http://www.w3.org/2000/svg">
    <path fill-rule="evenodd" clip-rule="evenodd" d="M9.977 6.42c.411-.34.69-.998.69-1.752 0-1.105-.597-2-1.334-2-.736 0-1.333.895-1.333 2 0 .28.038.547.108.79a1.334 1.334 0 0 0-.775 1.21h-.666c-.737 0-1.334.597-1.334 1.333v4c0 .737.597 1.334 1.334 1.334H7.69c.461.398 1.323.666 2.31.666 1.028 0 1.92-.29 2.366-.717.558-.16.967-.673.967-1.283V9.156a1.333 1.333 0 0 0-1-2.446A1.335 1.335 0 0 0 12 6.668h-2c0-.085-.008-.168-.023-.248z" fill="#01A0D5"/>
    <path d="M2 7.335h2.667V14H2V7.335z" fill="#01A0D5"/>
    <path d="M4 12.668a.667.667 0 1 1-1.333 0 .667.667 0 0 1 1.333 0z" fill="#fff"/>
    <path fill-rule="evenodd" clip-rule="evenodd" d="M11.518 5.273a6.27 6.27 0 0 1-.232.507h1.48c.575 0 1.066.218 1.464.591l.005.005c.393.395.631.858.631 1.41 0 .492-.123.906-.379 1.25.044.277.064.565.012.86-.05.298-.124.577-.274.818.04.3.008.596-.069.884l-.002.008-.002.008c-.099.276-.225.55-.406.766-.014.686-.21 1.257-.662 1.68-.465.437-1.12.64-1.907.64h-1.068a7.777 7.777 0 0 1-1.761-.223 12.14 12.14 0 0 1-1.531-.446l-.767-.24a11.01 11.01 0 0 1-.173-.033l-.012-.003a9.435 9.435 0 0 0-.142-.028l-.024-.004a.973.973 0 0 1-.323.704 1.037 1.037 0 0 1-.71.274h-2.5c-.277 0-.537-.087-.736-.274a.948.948 0 0 1-.297-.707V7.47c0-.25.1-.498.297-.683.189-.177.444-.299.736-.299h2.5c.305 0 .57.116.761.328a.328.328 0 0 0 .04-.016c.116-.054.273-.195.54-.47l.003-.004.004-.003c.144-.136.37-.394.681-.782.362-.484.657-.816.86-.98.067-.065.13-.175.204-.381l.002-.006.002-.006c.043-.1.092-.277.144-.566v-.004c.107-.55.271-.993.502-1.302.236-.316.545-.495.919-.495.763 0 1.372.205 1.786.65l.005.005c.38.437.57 1.051.57 1.815 0 .34-.056.68-.168.995l-.003.007zm-2.258-2a.738.738 0 0 1 .152-.29c.474.016.736.167.888.41.082.158.156.461.156.878 0 .215-.046.41-.119.617a4.985 4.985 0 0 1-.274.559c-.118.22-.195.403-.247.526l-.02.047c-.12.256-.148.507-.148.742v.2h3.117c.227 0 .44.096.618.263.171.16.25.352.25.538 0 .217-.047.398-.127.53l-.003.005-.003.005c-.071.134-.173.203-.338.241l-.417.098.343.257c.07.053.135.163.185.394.043.202.024.41-.024.64-.068.205-.167.312-.272.354l-.215.086.117.2c.131.226.17.46.087.716-.096.292-.224.447-.382.513l-.147.06.027.158c.098.575-.008.939-.232 1.17h-.001c-.206.212-.558.33-1.054.33h-1.068c-.455 0-.958-.048-1.485-.19h-.006c-.308-.073-.77-.193-1.335-.386H7.28a20.03 20.03 0 0 0-.949-.297l-.006-.001a5.18 5.18 0 0 0-.627-.116V7.944c.298-.054.612-.229.927-.524.218-.204.537-.554.956-1.07l.002-.002c.362-.46.641-.769.813-.93.208-.195.378-.465.514-.773l.004-.007.002-.007c.048-.134.095-.356.152-.63l.038-.176c.051-.244.1-.422.144-.525l.006-.013.003-.014zM2.366 13.52V7.67h2.1v5.85h-2.1z" fill="#0D7CA0"/>
</svg>
