<?xml version="1.0" standalone="no"?><!DOCTYPE svg PUBLIC "-//W3C//DTD SVG 1.1//EN" "http://www.w3.org/Graphics/SVG/1.1/DTD/svg11.dtd"><svg t="1678169495841" class="icon" viewBox="0 0 1024 1024" version="1.1" xmlns="http://www.w3.org/2000/svg" p-id="4116" width="24" height="24" xmlns:xlink="http://www.w3.org/1999/xlink"><path d="M647.04 800h-270.08a12.48 12.48 0 0 0-8.96 21.44l134.72 135.04a12.48 12.48 0 0 0 17.6 0l135.04-135.04a12.48 12.48 0 0 0-8.96-21.44zM864 64H160a128 128 0 0 0-128 128v384a128 128 0 0 0 128 128h704a128 128 0 0 0 128-128V192a128 128 0 0 0-128-128z m-256 128a64 64 0 1 1-64 64 64 64 0 0 1 64-64z m-32 224a64 64 0 1 1-64-64 64 64 0 0 1 64 64z m-160-224a64 64 0 1 1-64 64 64 64 0 0 1 64-64zM160 256a64 64 0 1 1 64 64 64 64 0 0 1-64-64z m96 160a64 64 0 1 1 64 64 64 64 0 0 1-64-64z m384 224h-256a64 64 0 0 1 0-128h256a64 64 0 0 1 0 128z m64-160a64 64 0 1 1 64-64 64 64 0 0 1-64 64z m96-160a64 64 0 1 1 64-64 64 64 0 0 1-64 64z" fill="#7A40F1" p-id="4117"></path></svg>