<svg xmlns="http://www.w3.org/2000/svg" xmlns:xlink="http://www.w3.org/1999/xlink" fill="none" version="1.1" width="20" height="20" viewBox="0 0 20 20"><defs><clipPath id="master_svg0_151_0569"><rect x="0" y="0" width="20" height="20" rx="0"/></clipPath></defs><g clip-path="url(#master_svg0_151_0569)"><rect x="0" y="0" width="20" height="20" rx="0" fill="#582323" fill-opacity="0"/><g><path d="M8.5848,13.7163L5.154795,10.2863C4.9484015,10.08006,4.9484015,9.74553,5.154795,9.5393L5.9007950000000005,8.7933C6.10691,8.58757,6.44068,8.58757,6.64679,8.7933L8.95779,11.1043L11.43279,8.6293L13.90779,6.154295C14.11391,5.9485683,14.44768,5.9485683,14.6538,6.154295L15.4008,6.901295C15.6065,7.10741,15.6065,7.44118,15.4008,7.6472999999999995L9.33079,13.7173C9.12468,13.923020000000001,8.79091,13.923020000000001,8.5848,13.7163L8.5848,13.7163Z" fill-rule="evenodd" fill="#FEFFFF" fill-opacity="1"/></g></g></svg>