<svg width="14" height="14" viewBox="0 0 14 14" fill="none" xmlns="http://www.w3.org/2000/svg">
<path d="M12.7296 14L9.3463 10.6167C8.89259 10.9796 8.37083 11.267 7.78102 11.4787C7.1912 11.6904 6.56358 11.7963 5.89815 11.7963C4.24969 11.7963 2.85455 11.2254 1.71273 10.0836C0.570911 8.94174 0 7.54661 0 5.89815C0 4.24969 0.570911 2.85455 1.71273 1.71273C2.85455 0.570911 4.24969 0 5.89815 0C7.54661 0 8.94174 0.570911 10.0836 1.71273C11.2254 2.85455 11.7963 4.24969 11.7963 5.89815C11.7963 6.56358 11.6904 7.1912 11.4787 7.78102C11.267 8.37083 10.9796 8.89259 10.6167 9.3463L14 12.7296L12.7296 14ZM5.89815 9.98148C7.03241 9.98148 7.99653 9.58449 8.79051 8.79051C9.58449 7.99653 9.98148 7.03241 9.98148 5.89815C9.98148 4.76389 9.58449 3.79977 8.79051 3.00579C7.99653 2.21181 7.03241 1.81481 5.89815 1.81481C4.76389 1.81481 3.79977 2.21181 3.00579 3.00579C2.21181 3.79977 1.81481 4.76389 1.81481 5.89815C1.81481 7.03241 2.21181 7.99653 3.00579 8.79051C3.79977 9.58449 4.76389 9.98148 5.89815 9.98148Z" fill="#5C7183"/>
</svg>
