<svg width="17" height="16" viewBox="0 0 17 16" fill="none" xmlns="http://www.w3.org/2000/svg">
<mask id="mask0_8453_4055" style="mask-type:alpha" maskUnits="userSpaceOnUse" x="0" y="0" width="17" height="16">
<rect x="0.5" width="16" height="16" fill="#D9D9D9"/>
</mask>
<g mask="url(#mask0_8453_4055)">
<path d="M11.2332 8.8667L10.2665 7.90003C10.3665 7.37781 10.2165 6.88892 9.8165 6.43337C9.4165 5.97781 8.89984 5.80003 8.2665 5.90003L7.29984 4.93337C7.48873 4.84448 7.68039 4.77781 7.87484 4.73337C8.06928 4.68892 8.27762 4.6667 8.49984 4.6667C9.33317 4.6667 10.0415 4.95837 10.6248 5.5417C11.2082 6.12503 11.4998 6.83337 11.4998 7.6667C11.4998 7.88892 11.4776 8.09726 11.4332 8.2917C11.3887 8.48614 11.3221 8.67781 11.2332 8.8667ZM13.3665 10.9667L12.3998 10.0334C12.8221 9.71114 13.1971 9.35837 13.5248 8.97503C13.8526 8.5917 14.1332 8.15559 14.3665 7.6667C13.8109 6.54448 13.0137 5.65281 11.9748 4.9917C10.9359 4.33059 9.77762 4.00003 8.49984 4.00003C8.17762 4.00003 7.86095 4.02225 7.54984 4.0667C7.23873 4.11114 6.93317 4.17781 6.63317 4.2667L5.59984 3.23337C6.05539 3.04448 6.52206 2.90281 6.99984 2.80837C7.47762 2.71392 7.97762 2.6667 8.49984 2.6667C10.1776 2.6667 11.6721 3.13059 12.9832 4.05837C14.2943 4.98614 15.2443 6.18892 15.8332 7.6667C15.5776 8.32226 15.2415 8.93059 14.8248 9.4917C14.4082 10.0528 13.9221 10.5445 13.3665 10.9667ZM13.6998 15.0667L10.8998 12.3C10.5109 12.4223 10.1193 12.5139 9.72484 12.575C9.33039 12.6361 8.92206 12.6667 8.49984 12.6667C6.82206 12.6667 5.32762 12.2028 4.0165 11.275C2.70539 10.3473 1.75539 9.14448 1.1665 7.6667C1.39984 7.07781 1.69428 6.53059 2.04984 6.02503C2.40539 5.51948 2.81095 5.0667 3.2665 4.6667L1.43317 2.80003L2.3665 1.8667L14.6332 14.1334L13.6998 15.0667ZM4.19984 5.60003C3.87762 5.88892 3.58317 6.20559 3.3165 6.55003C3.04984 6.89448 2.82206 7.2667 2.63317 7.6667C3.18873 8.78892 3.98595 9.68059 5.02484 10.3417C6.06373 11.0028 7.22206 11.3334 8.49984 11.3334C8.72206 11.3334 8.93873 11.3195 9.14984 11.2917C9.36095 11.2639 9.57761 11.2334 9.79984 11.2L9.19984 10.5667C9.07762 10.6 8.96095 10.625 8.84984 10.6417C8.73873 10.6584 8.62206 10.6667 8.49984 10.6667C7.6665 10.6667 6.95817 10.375 6.37484 9.7917C5.7915 9.20837 5.49984 8.50003 5.49984 7.6667C5.49984 7.54448 5.50817 7.42781 5.52484 7.3167C5.5415 7.20559 5.5665 7.08892 5.59984 6.9667L4.19984 5.60003Z" fill="#8A9AA8"/>
</g>
</svg>
