<svg width="40" height="40" viewBox="0 0 40 40" fill="none" xmlns="http://www.w3.org/2000/svg">
    <g clip-path="url(#lpuhw54w1a)">
        <path d="M29.081 8.87H27.4V7.045c0-.807-.651-1.458-1.458-1.458-.807 0-1.458.651-1.458 1.458V8.87H13.648V7.044c0-.807-.651-1.458-1.458-1.458-.806 0-1.458.651-1.458 1.458V8.87H9.11a3.646 3.646 0 0 0-3.644 3.644v14.782a4.415 4.415 0 0 0 4.412 4.413h7.532c.807 0 1.458-.651 1.458-1.458 0-.807-.651-1.458-1.458-1.458H9.877c-.826 0-1.497-.67-1.497-1.497v-10.35h21.43v1.186c0 .806.651 1.457 1.458 1.457.807 0 1.458-.65 1.458-1.457v-5.618a3.646 3.646 0 0 0-3.645-3.644z" fill="#F89B3E"/>
        <path d="M28.102 20.96a6.435 6.435 0 0 0-6.434 6.435 6.429 6.429 0 0 0 6.434 6.433 6.429 6.429 0 0 0 6.433-6.433 6.429 6.429 0 0 0-6.433-6.434zm3.13 5.443-3.412 3.412a1.015 1.015 0 0 1-1.439 0l-1.418-1.42a1.015 1.015 0 0 1 0-1.438 1.015 1.015 0 0 1 1.438 0l.7.7 2.692-2.692a1.015 1.015 0 0 1 1.438 0c.399.398.399 1.04 0 1.438z" fill="#0D7CA0"/>
    </g>
    <defs>
        <clipPath id="lpuhw54w1a">
            <path fill="#fff" d="M0 0h40v40H0z"/>
        </clipPath>
    </defs>
</svg>
