<svg width="40" height="40" viewBox="0 0 40 40" fill="none" xmlns="http://www.w3.org/2000/svg">
    <path d="M33.596 20.002v8.744c0 1.073-.87 1.943-1.943 1.943h-.971v2.464c0 .359-.402.571-.699.37l-4.159-2.834h-4.857a1.943 1.943 0 0 1-1.944-1.944v-1.943h6.801a3.886 3.886 0 0 0 3.886-3.886V18.06h1.943c1.074 0 1.943.87 1.943 1.943z" fill="#0D7CA0"/>
    <path d="M24.857 6.398H9.313a2.914 2.914 0 0 0-2.915 2.915v12.63a2.914 2.914 0 0 0 2.915 2.914h.971v4.322c0 .51.639.742.966.35l3.892-4.671h9.716a2.914 2.914 0 0 0 2.914-2.915V9.313a2.915 2.915 0 0 0-2.915-2.915zm-7.772 16.517a1.457 1.457 0 1 1 0-2.915 1.457 1.457 0 0 1 0 2.915zm1.757-7.495c-.33.181-.543.599-.543 1.064v2.059a.486.486 0 0 1-.485.485h-1.457a.486.486 0 0 1-.486-.485v-2.059c0-1.357.69-2.58 1.799-3.191 1.003-.553.753-2.065-.354-2.259a1.219 1.219 0 0 0-1.42.95 1.215 1.215 0 0 1-2.38-.483 3.628 3.628 0 0 1 4.22-2.859c3.364.589 4.1 5.129 1.106 6.778z" fill="#FF9635"/>
</svg>
