<svg width="16" height="16" viewBox="0 0 16 16" fill="none" xmlns="http://www.w3.org/2000/svg">
    <path d="M14.279 8.982c.052.293.078.586.026.88-.052.317-.13.585-.287.805a2.01 2.01 0 0 1-.052.879c-.104.293-.234.561-.416.757 0 .683-.183 1.22-.6 1.611-.416.39-1.015.586-1.77.586h-1.068a7.58 7.58 0 0 1-1.719-.22c-.364-.073-.885-.22-1.51-.44l-.781-.243c-.26-.05-.443-.098-.6-.098v.22c0 .22-.104.415-.26.561a.837.837 0 0 1-.573.22h-2.5a.855.855 0 0 1-.599-.22.748.748 0 0 1-.234-.561v-6.25c0-.196.078-.39.234-.537a.875.875 0 0 1 .6-.245h2.5a.8.8 0 0 1 .676.342.517.517 0 0 0 .209-.049c.156-.073.338-.244.599-.512.156-.147.39-.415.703-.806.364-.488.65-.806.833-.952.104-.098.182-.244.26-.464a3.01 3.01 0 0 0 .157-.61C8.315 2.562 8.732 2 9.33 2c.729 0 1.276.195 1.64.586.339.39.521.952.521 1.685 0 .317-.052.634-.156.927a7.152 7.152 0 0 1-.339.708l-.052.073h1.823c.521 0 .964.196 1.328.538.365.366.573.78.573 1.27 0 .487-.13.878-.39 1.195zM2.169 13.72h2.5v-6.25h-2.5v6.25zm11.042-4.98c.208-.05.364-.147.469-.343.104-.17.156-.39.156-.634a.935.935 0 0 0-.313-.684 1.103 1.103 0 0 0-.755-.317H9.852c0-.22.026-.44.13-.66.052-.122.13-.317.26-.561.13-.244.235-.44.287-.586.078-.22.13-.44.13-.683 0-.44-.078-.782-.182-.977-.209-.342-.573-.513-1.146-.513a.931.931 0 0 0-.26.44 3.389 3.389 0 0 0-.157.561c-.078.366-.13.635-.182.781-.13.293-.287.538-.469.708-.182.171-.469.489-.833.953-.417.512-.73.854-.938 1.05-.364.341-.703.488-.99.488v4.956c.209 0 .47.049.782.122.182.049.495.146.937.293a14.34 14.34 0 0 0 1.355.39 5.915 5.915 0 0 0 1.536.196h1.068c.52 0 .937-.122 1.198-.39.286-.294.39-.733.286-1.344.234-.097.39-.317.495-.634.104-.318.052-.61-.104-.88.182-.073.312-.244.39-.488.052-.244.078-.488.026-.732-.052-.244-.13-.415-.26-.513zm-9.167 3.808c0-.147-.078-.293-.182-.415a.766.766 0 0 0-.443-.171.65.65 0 0 0-.442.17.554.554 0 0 0-.183.416c0 .17.052.317.183.415.104.122.26.17.442.17a.631.631 0 0 0 .443-.17.571.571 0 0 0 .182-.415z" fill="#0D7CA0" stroke="#0D7CA0" stroke-width=".6"/>
</svg>
