<svg xmlns="http://www.w3.org/2000/svg" xmlns:xlink="http://www.w3.org/1999/xlink" fill="none" version="1.1" width="20" height="20" viewBox="0 0 20 20"><defs><clipPath id="master_svg0_1_695"><rect x="0" y="0" width="20" height="20" rx="0"/></clipPath></defs><g clip-path="url(#master_svg0_1_695)"><rect x="0" y="0" width="20" height="20" rx="0" fill="#582323" fill-opacity="0"/><g><path d="M18.3712,19.75L15.392,16.7708C14.9816,17.0335,14.5467,17.2591,14.0871,17.4479C13.6275,17.6367,13.1515,17.7885,12.6591,17.9034L12.6591,15.8845C12.8888,15.8024,13.1146,15.7203,13.3362,15.6383C13.5578,15.5562,13.767,15.4577,13.964,15.3428L10.6894,12.0682L10.6894,17.1894L5.76515,12.2652L1.82575,12.2652L1.82575,6.35606L4.97727,6.35606L0.25,1.62879L1.62879,0.25L19.75,18.3712L18.3712,19.75ZM18.1742,14.0379L16.7462,12.6099C17.0252,12.101,17.2345,11.5676,17.374,11.0095C17.5136,10.4514,17.5833,9.8769,17.5833,9.28598C17.5833,7.74305,17.132,6.36426,16.2292,5.14962C15.3263,3.93497,14.1364,3.11426,12.6591,2.6875L12.6591,0.668562C14.6945,1.128152,16.3523,2.15814,17.6326,3.75852C18.9129,5.3589,19.553,7.20138,19.553,9.28598C19.553,10.15591,19.434,10.993,19.196,11.7974C18.958,12.6017,18.6174,13.3485,18.1742,14.0379ZM14.875,10.7386L12.6591,8.52272L12.6591,5.32197C13.4305,5.68308,14.0337,6.22474,14.4687,6.94697C14.9037,7.66919,15.1212,8.45706,15.1212,9.3106C15.1212,9.55682,15.1007,9.7989,15.0596,10.03694C15.0186,10.275,14.957,10.5089,14.875,10.7386ZM10.6894,6.55303L8.128779999999999,3.99242L10.6894,1.43182L10.6894,6.55303ZM8.71969,12.4129L8.71969,10.09849L6.94696,8.32576L3.79545,8.32576L3.79545,10.2955L6.60227,10.2955L8.71969,12.4129Z" fill="#000000" fill-opacity="1" style="mix-blend-mode:passthrough"/></g></g></svg>