<svg width="18" height="19" viewBox="0 0 18 19" fill="none" xmlns="http://www.w3.org/2000/svg">
<path d="M8.1 14.5H9.9V9.1H8.1V14.5ZM9 7.3C9.255 7.3 9.46875 7.21375 9.64125 7.04125C9.81375 6.86875 9.9 6.655 9.9 6.4C9.9 6.145 9.81375 5.93125 9.64125 5.75875C9.46875 5.58625 9.255 5.5 9 5.5C8.745 5.5 8.53125 5.58625 8.35875 5.75875C8.18625 5.93125 8.1 6.145 8.1 6.4C8.1 6.655 8.18625 6.86875 8.35875 7.04125C8.53125 7.21375 8.745 7.3 9 7.3ZM9 19C7.755 19 6.585 18.7638 5.49 18.2912C4.395 17.8187 3.4425 17.1775 2.6325 16.3675C1.8225 15.5575 1.18125 14.605 0.70875 13.51C0.23625 12.415 0 11.245 0 10C0 8.755 0.23625 7.585 0.70875 6.49C1.18125 5.395 1.8225 4.4425 2.6325 3.6325C3.4425 2.8225 4.395 2.18125 5.49 1.70875C6.585 1.23625 7.755 1 9 1C10.245 1 11.415 1.23625 12.51 1.70875C13.605 2.18125 14.5575 2.8225 15.3675 3.6325C16.1775 4.4425 16.8187 5.395 17.2912 6.49C17.7638 7.585 18 8.755 18 10C18 11.245 17.7638 12.415 17.2912 13.51C16.8187 14.605 16.1775 15.5575 15.3675 16.3675C14.5575 17.1775 13.605 17.8187 12.51 18.2912C11.415 18.7638 10.245 19 9 19ZM9 17.2C11.01 17.2 12.7125 16.5025 14.1075 15.1075C15.5025 13.7125 16.2 12.01 16.2 10C16.2 7.99 15.5025 6.2875 14.1075 4.8925C12.7125 3.4975 11.01 2.8 9 2.8C6.99 2.8 5.2875 3.4975 3.8925 4.8925C2.4975 6.2875 1.8 7.99 1.8 10C1.8 12.01 2.4975 13.7125 3.8925 15.1075C5.2875 16.5025 6.99 17.2 9 17.2Z" fill="#31728C"/>
</svg>
